<?xml version="1.0" encoding="UTF-8"?>
<svg xmlns="http://www.w3.org/2000/svg" xmlns:xlink="http://www.w3.org/1999/xlink" width="100px" height="100px" viewBox="0 0 100 100" version="1.1">
<g id="surface1">
<path style=" stroke:none;fill-rule:nonzero;fill:rgb(99.607843%,99.607843%,99.607843%);fill-opacity:1;" d="M 52.847656 3.175781 C 53.445312 3.496094 54.023438 3.84375 54.601562 4.199219 C 54.75 4.292969 54.902344 4.382812 55.058594 4.480469 C 56.308594 5.246094 57.554688 6.019531 58.800781 6.800781 C 59.070312 6.96875 59.34375 7.136719 59.613281 7.308594 C 60.410156 7.804688 61.203125 8.300781 62 8.800781 C 64.296875 10.238281 66.59375 11.675781 68.898438 13.101562 C 70.390625 14.019531 71.878906 14.945312 73.363281 15.875 C 73.5625 16 73.765625 16.125 73.96875 16.253906 C 74.976562 16.882812 75.984375 17.515625 76.988281 18.144531 C 77.382812 18.390625 77.78125 18.640625 78.175781 18.886719 C 78.371094 19.011719 78.566406 19.132812 78.769531 19.261719 C 80.039062 20.050781 81.308594 20.835938 82.585938 21.617188 C 84.425781 22.746094 86.261719 23.878906 88.074219 25.050781 C 88.238281 25.15625 88.402344 25.261719 88.570312 25.367188 C 90.464844 26.601562 90.464844 26.601562 90.800781 27.601562 C 90.957031 28.945312 90.957031 28.945312 90.578125 29.554688 C 89.851562 30.390625 89.117188 30.980469 88.164062 31.539062 C 87.875 31.710938 87.589844 31.882812 87.304688 32.054688 C 87.082031 32.191406 87.082031 32.191406 86.855469 32.324219 C 86.09375 32.785156 85.347656 33.261719 84.601562 33.738281 C 82.046875 35.355469 79.480469 36.949219 76.917969 38.550781 C 75.542969 39.410156 74.167969 40.269531 72.800781 41.136719 C 70.75 42.433594 68.691406 43.722656 66.628906 45.007812 C 65.554688 45.679688 64.476562 46.351562 63.398438 47.023438 C 63.011719 47.265625 62.625 47.507812 62.238281 47.75 C 62.0625 47.863281 61.886719 47.972656 61.703125 48.085938 C 61.375 48.292969 61.042969 48.492188 60.707031 48.6875 C 60.5625 48.773438 60.414062 48.859375 60.261719 48.949219 C 60.132812 49.023438 60.003906 49.09375 59.871094 49.171875 C 59.78125 49.246094 59.691406 49.320312 59.601562 49.398438 C 59.601562 49.597656 59.601562 49.796875 59.601562 50 C 59.886719 50.257812 59.886719 50.257812 60.273438 50.46875 C 60.421875 50.554688 60.566406 50.644531 60.71875 50.734375 C 60.875 50.824219 61.035156 50.917969 61.199219 51.011719 C 61.535156 51.210938 61.867188 51.410156 62.203125 51.609375 C 62.371094 51.710938 62.539062 51.808594 62.714844 51.910156 C 63.398438 52.320312 64.074219 52.738281 64.75 53.164062 C 64.875 53.242188 65 53.320312 65.128906 53.398438 C 65.941406 53.902344 66.742188 54.425781 67.535156 54.953125 C 67.832031 55.148438 67.832031 55.148438 68.132812 55.347656 C 68.519531 55.601562 68.90625 55.863281 69.292969 56.125 C 70.285156 56.789062 70.285156 56.789062 71.425781 57.042969 C 72.234375 56.699219 72.945312 56.261719 73.675781 55.773438 C 74.015625 55.554688 74.355469 55.335938 74.695312 55.113281 C 74.875 55 75.054688 54.882812 75.238281 54.761719 C 76.199219 54.140625 77.167969 53.539062 78.136719 52.9375 C 78.542969 52.683594 78.949219 52.429688 79.355469 52.179688 C 79.558594 52.050781 79.761719 51.921875 79.972656 51.792969 C 80.617188 51.390625 81.257812 50.988281 81.902344 50.585938 C 82.117188 50.449219 82.328125 50.316406 82.546875 50.179688 C 82.953125 49.925781 83.355469 49.671875 83.761719 49.417969 C 84.308594 49.078125 84.851562 48.738281 85.398438 48.398438 C 85.582031 48.285156 85.761719 48.171875 85.949219 48.050781 C 86.210938 47.890625 86.210938 47.890625 86.480469 47.722656 C 86.636719 47.625 86.789062 47.527344 86.949219 47.429688 C 87.703125 47.046875 88.386719 46.972656 89.199219 47.199219 C 89.855469 47.582031 90.476562 48.011719 90.714844 48.757812 C 90.8125 49.261719 90.824219 49.726562 90.820312 50.242188 C 90.820312 50.4375 90.816406 50.632812 90.816406 50.835938 C 90.816406 51.039062 90.8125 51.242188 90.8125 51.449219 C 90.8125 51.65625 90.8125 51.863281 90.808594 52.074219 C 90.808594 52.582031 90.804688 53.089844 90.800781 53.601562 C 90.933594 53.601562 91.0625 53.601562 91.199219 53.601562 C 91.210938 55.960938 91.214844 58.316406 91.222656 60.675781 C 91.222656 61.773438 91.226562 62.867188 91.230469 63.964844 C 91.234375 65.019531 91.238281 66.078125 91.238281 67.132812 C 91.238281 67.539062 91.238281 67.941406 91.242188 68.34375 C 91.246094 68.910156 91.246094 69.472656 91.246094 70.039062 C 91.246094 70.207031 91.25 70.375 91.25 70.546875 C 91.246094 72.007812 91.246094 72.007812 90.800781 72.601562 C 90.472656 72.800781 90.144531 72.996094 89.804688 73.175781 C 89.382812 73.410156 88.992188 73.667969 88.59375 73.9375 C 87.519531 74.660156 86.421875 75.34375 85.324219 76.023438 C 84.898438 76.289062 84.472656 76.554688 84.046875 76.820312 C 83.835938 76.953125 83.628906 77.082031 83.410156 77.21875 C 82.527344 77.769531 81.644531 78.328125 80.761719 78.886719 C 79.527344 79.667969 78.289062 80.441406 77.042969 81.207031 C 76.324219 81.644531 75.613281 82.089844 74.898438 82.539062 C 73.636719 83.328125 72.367188 84.117188 71.101562 84.898438 C 68.53125 86.488281 65.96875 88.09375 63.414062 89.707031 C 62.140625 90.511719 60.859375 91.316406 59.578125 92.113281 C 58.914062 92.527344 58.253906 92.941406 57.589844 93.359375 C 57.191406 93.609375 56.792969 93.859375 56.390625 94.105469 C 55.855469 94.4375 55.328125 94.777344 54.800781 95.125 C 54.542969 95.292969 54.285156 95.457031 54.023438 95.625 C 53.910156 95.703125 53.796875 95.78125 53.679688 95.863281 C 52.6875 96.488281 51.753906 96.609375 50.601562 96.398438 C 49.902344 96.117188 49.300781 95.738281 48.675781 95.324219 C 48.5 95.214844 48.328125 95.105469 48.148438 94.992188 C 47.796875 94.769531 47.445312 94.546875 47.09375 94.320312 C 46.523438 93.953125 45.949219 93.59375 45.371094 93.238281 C 44.710938 92.828125 44.054688 92.414062 43.398438 92 C 43.257812 91.910156 43.117188 91.820312 42.96875 91.730469 C 42.355469 91.339844 41.742188 90.953125 41.128906 90.5625 C 38.871094 89.136719 36.601562 87.722656 34.335938 86.3125 C 33.9375 86.0625 33.539062 85.8125 33.136719 85.5625 C 33.011719 85.484375 32.886719 85.40625 32.761719 85.328125 C 31.90625 84.792969 31.058594 84.257812 30.210938 83.71875 C 28.652344 82.730469 27.085938 81.757812 25.511719 80.800781 C 23.183594 79.382812 20.878906 77.925781 18.574219 76.464844 C 17.648438 75.878906 16.714844 75.304688 15.773438 74.738281 C 12.984375 73.023438 12.984375 73.023438 12.398438 71.800781 C 12.269531 71.734375 12.136719 71.667969 12 71.601562 C 11.984375 65.898438 11.976562 60.199219 11.96875 54.5 C 11.964844 51.851562 11.960938 49.207031 11.953125 46.558594 C 11.949219 44.253906 11.945312 41.945312 11.945312 39.640625 C 11.941406 38.417969 11.941406 37.195312 11.9375 35.976562 C 11.933594 34.824219 11.929688 33.675781 11.933594 32.527344 C 11.933594 32.105469 11.929688 31.683594 11.929688 31.261719 C 11.925781 30.683594 11.925781 30.109375 11.929688 29.535156 C 11.925781 29.367188 11.925781 29.199219 11.921875 29.023438 C 11.929688 27.878906 11.929688 27.878906 12.28125 27.484375 C 12.386719 27.390625 12.492188 27.296875 12.601562 27.199219 C 12.722656 27.035156 12.847656 26.871094 12.976562 26.703125 C 13.417969 26.179688 13.8125 25.886719 14.394531 25.53125 C 14.589844 25.410156 14.785156 25.289062 14.984375 25.167969 C 15.296875 24.980469 15.296875 24.980469 15.613281 24.789062 C 16.050781 24.519531 16.488281 24.25 16.921875 23.980469 C 17.140625 23.847656 17.355469 23.71875 17.582031 23.582031 C 18.4375 23.054688 19.289062 22.515625 20.136719 21.976562 C 21.605469 21.042969 23.082031 20.128906 24.5625 19.214844 C 27.515625 17.386719 30.460938 15.542969 33.398438 13.683594 C 34.738281 12.835938 36.085938 12.003906 37.433594 11.171875 C 38.585938 10.457031 39.730469 9.738281 40.875 9.011719 C 42.488281 7.988281 44.117188 6.996094 45.753906 6.003906 C 47.082031 5.199219 48.394531 4.371094 49.691406 3.515625 C 50.695312 2.894531 51.742188 2.738281 52.847656 3.175781 Z M 17.601562 33.601562 C 17.601562 44.292969 17.601562 54.984375 17.601562 66 C 18.324219 65.539062 19.050781 65.074219 19.800781 64.601562 C 20.445312 64.210938 21.089844 63.820312 21.738281 63.4375 C 23.796875 62.207031 25.832031 60.941406 27.859375 59.65625 C 28.164062 59.460938 28.46875 59.269531 28.773438 59.074219 C 28.929688 58.976562 29.085938 58.878906 29.246094 58.777344 C 30.613281 57.914062 31.988281 57.070312 33.363281 56.226562 C 35.386719 54.984375 37.390625 53.722656 39.390625 52.445312 C 40.785156 51.550781 42.191406 50.675781 43.601562 49.800781 C 42.929688 49.246094 42.257812 48.769531 41.511719 48.324219 C 40.261719 47.570312 39.03125 46.785156 37.800781 46 C 36.449219 45.136719 35.09375 44.28125 33.722656 43.445312 C 32.722656 42.832031 31.730469 42.210938 30.738281 41.585938 C 30.53125 41.460938 30.328125 41.332031 30.117188 41.199219 C 29.691406 40.933594 29.265625 40.667969 28.84375 40.402344 C 27.796875 39.746094 26.746094 39.09375 25.699219 38.4375 C 25.300781 38.1875 24.902344 37.9375 24.503906 37.691406 C 23.824219 37.265625 23.144531 36.839844 22.464844 36.417969 C 22.324219 36.328125 22.183594 36.242188 22.039062 36.152344 C 21.777344 35.988281 21.515625 35.824219 21.253906 35.660156 C 20.296875 35.0625 19.351562 34.453125 18.40625 33.835938 C 18.019531 33.566406 18.019531 33.566406 17.601562 33.601562 Z M 43.066406 56.707031 C 42.398438 57.128906 41.730469 57.546875 41.0625 57.960938 C 40.9375 58.042969 40.808594 58.121094 40.679688 58.203125 C 40.40625 58.375 40.128906 58.542969 39.855469 58.714844 C 39.34375 59.035156 38.828125 59.355469 38.316406 59.679688 C 36.207031 61 34.09375 62.3125 31.976562 63.613281 C 29.972656 64.839844 27.984375 66.09375 26.003906 67.359375 C 25.074219 67.953125 24.144531 68.539062 23.210938 69.125 C 23.089844 69.203125 22.964844 69.28125 22.835938 69.359375 C 22.035156 69.863281 21.222656 70.335938 20.398438 70.800781 C 20.632812 71.492188 20.734375 71.535156 21.339844 71.886719 C 21.496094 71.976562 21.652344 72.070312 21.816406 72.164062 C 21.988281 72.261719 22.160156 72.359375 22.335938 72.460938 C 22.707031 72.679688 23.074219 72.894531 23.441406 73.113281 C 23.730469 73.28125 23.730469 73.28125 24.023438 73.453125 C 24.945312 74.007812 25.847656 74.582031 26.75 75.164062 C 28.910156 76.546875 31.085938 77.90625 33.261719 79.265625 C 34.007812 79.730469 34.753906 80.195312 35.5 80.664062 C 36.257812 81.136719 37.015625 81.609375 37.773438 82.082031 C 40.589844 83.839844 43.402344 85.601562 46.183594 87.414062 C 46.972656 87.90625 47.769531 88.382812 48.601562 88.800781 C 48.601562 88.59375 48.601562 88.390625 48.605469 88.179688 C 48.613281 86.242188 48.628906 84.304688 48.648438 82.367188 C 48.65625 81.375 48.664062 80.378906 48.667969 79.382812 C 48.675781 78.421875 48.683594 77.460938 48.691406 76.5 C 48.695312 76.132812 48.699219 75.765625 48.699219 75.402344 C 48.703125 74.886719 48.707031 74.375 48.714844 73.859375 C 48.714844 73.710938 48.714844 73.558594 48.710938 73.402344 C 48.730469 72.308594 48.96875 71.488281 49.699219 70.660156 C 50.636719 69.890625 51.625 69.269531 52.675781 68.664062 C 53.964844 67.902344 55.238281 67.132812 56.488281 66.3125 C 57.746094 65.488281 59.019531 64.6875 60.300781 63.898438 C 62.152344 62.761719 63.980469 61.589844 65.800781 60.398438 C 65.15625 59.871094 64.507812 59.394531 63.800781 58.957031 C 63.609375 58.835938 63.417969 58.71875 63.21875 58.59375 C 63.015625 58.46875 62.808594 58.34375 62.601562 58.210938 C 62.390625 58.082031 62.179688 57.949219 61.960938 57.816406 C 60.90625 57.160156 59.847656 56.507812 58.792969 55.851562 C 58.605469 55.738281 58.414062 55.621094 58.222656 55.5 C 57.867188 55.28125 57.511719 55.0625 57.15625 54.84375 C 56.996094 54.742188 56.832031 54.644531 56.667969 54.542969 C 56.515625 54.449219 56.367188 54.355469 56.214844 54.261719 C 55.839844 54.027344 55.480469 53.78125 55.121094 53.527344 C 54.617188 53.144531 54.617188 53.144531 53.988281 53.210938 C 53.394531 53.371094 53.394531 53.371094 52.925781 53.710938 C 52.210938 54.101562 51.585938 54.136719 50.800781 54 C 50.355469 53.820312 49.949219 53.613281 49.53125 53.375 C 48.148438 52.648438 44.304688 55.917969 43.066406 56.707031 Z M 84.261719 55.441406 C 84.113281 55.535156 83.960938 55.632812 83.808594 55.730469 C 83.644531 55.835938 83.480469 55.941406 83.3125 56.050781 C 82.964844 56.273438 82.617188 56.492188 82.269531 56.714844 C 82.089844 56.828125 81.914062 56.945312 81.730469 57.0625 C 80.925781 57.578125 80.117188 58.089844 79.3125 58.601562 C 79.078125 58.75 79.078125 58.75 78.839844 58.902344 C 77.71875 59.605469 76.585938 60.289062 75.449219 60.960938 C 73.804688 61.941406 72.199219 62.976562 70.601562 64.027344 C 68.488281 65.414062 66.332031 66.730469 64.171875 68.046875 C 63.035156 68.746094 61.902344 69.457031 60.769531 70.167969 C 60.378906 70.414062 59.984375 70.65625 59.59375 70.902344 C 59.457031 70.988281 59.320312 71.074219 59.179688 71.160156 C 58.925781 71.320312 58.671875 71.476562 58.421875 71.632812 C 58.175781 71.785156 57.9375 71.9375 57.699219 72.097656 C 57.199219 72.398438 57.199219 72.398438 56.511719 72.726562 C 55.425781 73.277344 54.558594 73.730469 54.152344 74.925781 C 54.039062 75.808594 54.085938 76.683594 54.125 77.570312 C 54.132812 77.894531 54.136719 78.21875 54.136719 78.542969 C 54.148438 79.394531 54.175781 80.242188 54.207031 81.089844 C 54.238281 81.960938 54.25 82.828125 54.261719 83.699219 C 54.292969 85.398438 54.339844 87.097656 54.398438 88.800781 C 55.027344 88.554688 55.59375 88.304688 56.160156 87.941406 C 56.304688 87.851562 56.445312 87.757812 56.59375 87.664062 C 56.75 87.566406 56.902344 87.464844 57.0625 87.363281 C 57.402344 87.144531 57.746094 86.925781 58.085938 86.710938 C 58.265625 86.59375 58.445312 86.480469 58.632812 86.359375 C 59.617188 85.734375 60.609375 85.117188 61.601562 84.5 C 63.070312 83.582031 64.535156 82.664062 66 81.738281 C 67.507812 80.78125 69.023438 79.832031 70.539062 78.886719 C 71.066406 78.558594 71.59375 78.230469 72.117188 77.898438 C 74.042969 76.695312 75.96875 75.492188 77.898438 74.300781 C 79.476562 73.324219 81.050781 72.34375 82.625 71.363281 C 82.9375 71.167969 82.9375 71.167969 83.253906 70.96875 C 83.449219 70.847656 83.640625 70.726562 83.839844 70.605469 C 84.011719 70.496094 84.179688 70.390625 84.359375 70.28125 C 84.707031 70.058594 85.054688 69.828125 85.398438 69.601562 C 85.488281 68.96875 85.488281 68.96875 85.46875 68.214844 C 85.46875 68.070312 85.46875 67.929688 85.46875 67.78125 C 85.46875 67.3125 85.464844 66.839844 85.457031 66.367188 C 85.457031 66.039062 85.457031 65.714844 85.457031 65.386719 C 85.453125 64.527344 85.449219 63.664062 85.441406 62.804688 C 85.433594 61.925781 85.433594 61.046875 85.429688 60.171875 C 85.421875 58.445312 85.414062 56.722656 85.398438 55 C 84.886719 55 84.691406 55.164062 84.261719 55.441406 Z M 84.261719 55.441406 "/>
<path style=" stroke:none;fill-rule:nonzero;fill:rgb(89.411765%,89.019608%,89.019608%);fill-opacity:1;" d="M 49.601562 53 C 49.878906 53.15625 49.878906 53.15625 50.164062 53.3125 C 50.925781 53.65625 51.582031 53.753906 52.398438 53.601562 C 52.78125 53.417969 52.78125 53.417969 53.136719 53.1875 C 53.800781 52.800781 53.800781 52.800781 54.285156 52.84375 C 54.824219 53.007812 55.226562 53.214844 55.703125 53.519531 C 55.875 53.625 56.042969 53.730469 56.21875 53.839844 C 56.488281 54.011719 56.488281 54.011719 56.761719 54.1875 C 56.949219 54.304688 57.136719 54.421875 57.328125 54.542969 C 57.710938 54.785156 58.089844 55.023438 58.46875 55.265625 C 59.058594 55.636719 59.652344 56.007812 60.246094 56.375 C 60.625 56.613281 61.003906 56.851562 61.382812 57.089844 C 62 57.476562 62.621094 57.855469 63.242188 58.230469 C 63.59375 58.445312 63.949219 58.660156 64.300781 58.875 C 64.46875 58.976562 64.636719 59.074219 64.8125 59.179688 C 64.964844 59.273438 65.121094 59.367188 65.28125 59.46875 C 65.488281 59.59375 65.488281 59.59375 65.703125 59.71875 C 65.800781 59.8125 65.898438 59.90625 66 60 C 66 60.265625 66 60.527344 66 60.800781 C 65.601562 61.097656 65.234375 61.328125 64.800781 61.5625 C 64.523438 61.71875 64.246094 61.878906 63.972656 62.039062 C 63.816406 62.125 63.664062 62.214844 63.503906 62.304688 C 62.539062 62.867188 61.597656 63.46875 60.648438 64.0625 C 60.441406 64.191406 60.238281 64.320312 60.023438 64.453125 C 58.617188 65.335938 57.210938 66.222656 55.808594 67.113281 C 54.964844 67.648438 54.113281 68.175781 53.257812 68.699219 C 53.066406 68.816406 52.878906 68.933594 52.679688 69.054688 C 52.3125 69.277344 51.941406 69.503906 51.570312 69.726562 C 50.15625 70.503906 50.15625 70.503906 49.285156 71.777344 C 49.148438 72.464844 49.164062 73.15625 49.160156 73.851562 C 49.15625 74.015625 49.15625 74.183594 49.152344 74.355469 C 49.148438 74.902344 49.140625 75.449219 49.136719 75.996094 C 49.132812 76.375 49.128906 76.757812 49.125 77.136719 C 49.113281 78.136719 49.101562 79.136719 49.09375 80.136719 C 49.082031 81.15625 49.074219 82.175781 49.0625 83.195312 C 49.039062 85.199219 49.019531 87.199219 49 89.199219 C 48.175781 89.023438 47.550781 88.628906 46.851562 88.175781 C 46.5625 87.992188 46.273438 87.808594 45.984375 87.625 C 45.828125 87.527344 45.667969 87.425781 45.507812 87.320312 C 44.574219 86.730469 43.636719 86.148438 42.699219 85.5625 C 42.285156 85.304688 41.871094 85.042969 41.457031 84.785156 C 41.25 84.65625 41.039062 84.523438 40.824219 84.390625 C 29.398438 77.25 29.398438 77.25 28.800781 76.875 C 28.402344 76.625 28.003906 76.378906 27.609375 76.128906 C 26.5625 75.476562 25.511719 74.820312 24.464844 74.164062 C 24.140625 73.960938 24.140625 73.960938 23.804688 73.75 C 23.386719 73.492188 22.96875 73.230469 22.550781 72.96875 C 22.363281 72.847656 22.171875 72.730469 21.980469 72.609375 C 21.8125 72.507812 21.648438 72.402344 21.476562 72.296875 C 20.988281 71.992188 20.496094 71.695312 20 71.398438 C 20.070312 70.875 20.136719 70.652344 20.546875 70.308594 C 20.699219 70.21875 20.847656 70.128906 21.003906 70.039062 C 21.257812 69.882812 21.257812 69.882812 21.519531 69.726562 C 21.703125 69.621094 21.886719 69.511719 22.074219 69.398438 C 22.460938 69.167969 22.847656 68.933594 23.234375 68.703125 C 23.429688 68.585938 23.625 68.46875 23.828125 68.347656 C 24.671875 67.835938 25.503906 67.304688 26.335938 66.773438 C 27.550781 66.003906 28.773438 65.246094 30 64.5 C 31.371094 63.664062 32.734375 62.8125 34.09375 61.953125 C 36.636719 60.339844 39.191406 58.738281 41.761719 57.164062 C 42.828125 56.507812 43.890625 55.84375 44.949219 55.175781 C 45.183594 55.027344 45.183594 55.027344 45.421875 54.878906 C 45.574219 54.78125 45.726562 54.683594 45.882812 54.585938 C 46.035156 54.492188 46.1875 54.398438 46.339844 54.300781 C 46.660156 54.089844 46.972656 53.875 47.28125 53.652344 C 47.515625 53.484375 47.515625 53.484375 47.753906 53.3125 C 47.890625 53.210938 48.03125 53.109375 48.171875 53 C 48.734375 52.738281 49.015625 52.816406 49.601562 53 Z M 43.066406 56.707031 C 42.398438 57.128906 41.730469 57.546875 41.0625 57.960938 C 40.9375 58.042969 40.808594 58.121094 40.679688 58.203125 C 40.40625 58.375 40.128906 58.542969 39.855469 58.714844 C 39.34375 59.035156 38.828125 59.355469 38.316406 59.679688 C 36.207031 61 34.09375 62.3125 31.976562 63.613281 C 29.972656 64.839844 27.984375 66.09375 26.003906 67.359375 C 25.074219 67.953125 24.144531 68.539062 23.210938 69.125 C 23.089844 69.203125 22.964844 69.28125 22.835938 69.359375 C 22.035156 69.863281 21.222656 70.335938 20.398438 70.800781 C 20.632812 71.492188 20.734375 71.535156 21.339844 71.886719 C 21.496094 71.976562 21.652344 72.070312 21.816406 72.164062 C 21.988281 72.261719 22.160156 72.359375 22.335938 72.460938 C 22.707031 72.679688 23.074219 72.894531 23.441406 73.113281 C 23.730469 73.28125 23.730469 73.28125 24.023438 73.453125 C 24.945312 74.007812 25.847656 74.582031 26.75 75.164062 C 28.910156 76.546875 31.085938 77.90625 33.261719 79.265625 C 34.007812 79.730469 34.753906 80.195312 35.5 80.664062 C 36.257812 81.136719 37.015625 81.609375 37.773438 82.082031 C 40.589844 83.839844 43.402344 85.601562 46.183594 87.414062 C 46.972656 87.90625 47.769531 88.382812 48.601562 88.800781 C 48.601562 88.59375 48.601562 88.390625 48.605469 88.179688 C 48.613281 86.242188 48.628906 84.304688 48.648438 82.367188 C 48.65625 81.375 48.664062 80.378906 48.667969 79.382812 C 48.675781 78.421875 48.683594 77.460938 48.691406 76.5 C 48.695312 76.132812 48.699219 75.765625 48.699219 75.402344 C 48.703125 74.886719 48.707031 74.375 48.714844 73.859375 C 48.714844 73.710938 48.714844 73.558594 48.710938 73.402344 C 48.730469 72.308594 48.96875 71.488281 49.699219 70.660156 C 50.636719 69.890625 51.625 69.269531 52.675781 68.664062 C 53.964844 67.902344 55.238281 67.132812 56.488281 66.3125 C 57.746094 65.488281 59.019531 64.6875 60.300781 63.898438 C 62.152344 62.761719 63.980469 61.589844 65.800781 60.398438 C 65.15625 59.871094 64.507812 59.394531 63.800781 58.957031 C 63.609375 58.835938 63.417969 58.71875 63.21875 58.59375 C 63.015625 58.46875 62.808594 58.34375 62.601562 58.210938 C 62.390625 58.082031 62.179688 57.949219 61.960938 57.816406 C 60.90625 57.160156 59.847656 56.507812 58.792969 55.851562 C 58.605469 55.738281 58.414062 55.621094 58.222656 55.5 C 57.867188 55.28125 57.511719 55.0625 57.15625 54.84375 C 56.996094 54.742188 56.832031 54.644531 56.667969 54.542969 C 56.515625 54.449219 56.367188 54.355469 56.214844 54.261719 C 55.839844 54.027344 55.480469 53.78125 55.121094 53.527344 C 54.617188 53.144531 54.617188 53.144531 53.988281 53.210938 C 53.394531 53.371094 53.394531 53.371094 52.925781 53.710938 C 52.210938 54.101562 51.585938 54.136719 50.800781 54 C 50.355469 53.820312 49.949219 53.613281 49.53125 53.375 C 48.148438 52.648438 44.304688 55.917969 43.066406 56.707031 Z M 43.066406 56.707031 "/>
<path style=" stroke:none;fill-rule:nonzero;fill:rgb(89.411765%,89.019608%,89.019608%);fill-opacity:1;" d="M 85.800781 54.601562 C 85.847656 56.53125 85.882812 58.460938 85.902344 60.394531 C 85.914062 61.292969 85.929688 62.1875 85.949219 63.085938 C 85.972656 63.953125 85.984375 64.816406 85.988281 65.683594 C 85.992188 66.015625 86 66.34375 86.011719 66.675781 C 86.09375 69.253906 86.09375 69.253906 85.378906 70.097656 C 84.867188 70.460938 84.367188 70.738281 83.800781 71 C 83.605469 71.128906 83.410156 71.253906 83.207031 71.386719 C 83.046875 71.484375 82.886719 71.585938 82.722656 71.6875 C 82.539062 71.804688 82.351562 71.917969 82.160156 72.039062 C 81.96875 72.15625 81.773438 72.277344 81.574219 72.398438 C 81.152344 72.664062 80.726562 72.925781 80.304688 73.191406 C 80.085938 73.324219 79.871094 73.457031 79.648438 73.59375 C 78.808594 74.117188 77.972656 74.644531 77.132812 75.167969 C 75.550781 76.160156 73.96875 77.144531 72.375 78.113281 C 70.878906 79.023438 69.398438 79.960938 67.921875 80.902344 C 64.984375 82.777344 62.035156 84.625 59.054688 86.425781 C 58.335938 86.859375 57.632812 87.308594 56.941406 87.785156 C 56.734375 87.929688 56.734375 87.929688 56.523438 88.074219 C 56.265625 88.253906 56.007812 88.433594 55.753906 88.617188 C 55.40625 88.859375 55.40625 88.859375 54.800781 89.199219 C 54.363281 89.121094 54.363281 89.121094 54 89 C 53.949219 87.097656 53.910156 85.195312 53.886719 83.292969 C 53.875 82.410156 53.859375 81.527344 53.835938 80.644531 C 53.808594 79.789062 53.796875 78.9375 53.792969 78.085938 C 53.789062 77.757812 53.78125 77.433594 53.765625 77.109375 C 53.679688 74.574219 53.679688 74.574219 54.472656 73.65625 C 55.03125 73.242188 55.582031 72.914062 56.199219 72.601562 C 56.519531 72.402344 56.839844 72.203125 57.15625 72.003906 C 57.46875 71.816406 57.785156 71.632812 58.101562 71.449219 C 59.449219 70.652344 60.789062 69.839844 62.113281 69 C 62.269531 68.902344 62.425781 68.800781 62.585938 68.699219 C 62.902344 68.5 63.214844 68.300781 63.53125 68.097656 C 64.3125 67.601562 65.09375 67.105469 65.875 66.613281 C 66.03125 66.515625 66.183594 66.417969 66.34375 66.316406 C 67.546875 65.558594 68.753906 64.808594 69.960938 64.0625 C 71.136719 63.339844 72.304688 62.609375 73.460938 61.863281 C 75.304688 60.671875 77.171875 59.511719 79.039062 58.359375 C 79.21875 58.25 79.394531 58.136719 79.578125 58.023438 C 79.941406 57.800781 80.304688 57.578125 80.664062 57.355469 C 81.46875 56.859375 82.273438 56.355469 83.0625 55.835938 C 83.253906 55.707031 83.253906 55.707031 83.449219 55.578125 C 83.789062 55.355469 84.121094 55.128906 84.457031 54.902344 C 85 54.601562 85 54.601562 85.800781 54.601562 Z M 84.261719 55.441406 C 84.113281 55.535156 83.960938 55.632812 83.808594 55.730469 C 83.644531 55.835938 83.480469 55.941406 83.3125 56.050781 C 82.964844 56.273438 82.617188 56.492188 82.269531 56.714844 C 82.089844 56.828125 81.914062 56.945312 81.730469 57.0625 C 80.925781 57.578125 80.117188 58.089844 79.3125 58.601562 C 79.078125 58.75 79.078125 58.75 78.839844 58.902344 C 77.71875 59.605469 76.585938 60.289062 75.449219 60.960938 C 73.804688 61.941406 72.199219 62.976562 70.601562 64.027344 C 68.488281 65.414062 66.332031 66.730469 64.171875 68.046875 C 63.035156 68.746094 61.902344 69.457031 60.769531 70.167969 C 60.378906 70.414062 59.984375 70.65625 59.59375 70.902344 C 59.457031 70.988281 59.320312 71.074219 59.179688 71.160156 C 58.925781 71.320312 58.671875 71.476562 58.421875 71.632812 C 58.175781 71.785156 57.9375 71.9375 57.699219 72.097656 C 57.199219 72.398438 57.199219 72.398438 56.511719 72.726562 C 55.425781 73.277344 54.558594 73.730469 54.152344 74.925781 C 54.039062 75.808594 54.085938 76.683594 54.125 77.570312 C 54.132812 77.894531 54.136719 78.21875 54.136719 78.542969 C 54.148438 79.394531 54.175781 80.242188 54.207031 81.089844 C 54.238281 81.960938 54.25 82.828125 54.261719 83.699219 C 54.292969 85.398438 54.339844 87.097656 54.398438 88.800781 C 55.027344 88.554688 55.59375 88.304688 56.160156 87.941406 C 56.304688 87.851562 56.445312 87.757812 56.59375 87.664062 C 56.75 87.566406 56.902344 87.464844 57.0625 87.363281 C 57.402344 87.144531 57.746094 86.925781 58.085938 86.710938 C 58.265625 86.59375 58.445312 86.480469 58.632812 86.359375 C 59.617188 85.734375 60.609375 85.117188 61.601562 84.5 C 63.070312 83.582031 64.535156 82.664062 66 81.738281 C 67.507812 80.78125 69.023438 79.832031 70.539062 78.886719 C 71.066406 78.558594 71.59375 78.230469 72.117188 77.898438 C 74.042969 76.695312 75.96875 75.492188 77.898438 74.300781 C 79.476562 73.324219 81.050781 72.34375 82.625 71.363281 C 82.9375 71.167969 82.9375 71.167969 83.253906 70.96875 C 83.449219 70.847656 83.640625 70.726562 83.839844 70.605469 C 84.011719 70.496094 84.179688 70.390625 84.359375 70.28125 C 84.707031 70.058594 85.054688 69.828125 85.398438 69.601562 C 85.488281 68.96875 85.488281 68.96875 85.46875 68.214844 C 85.46875 68.070312 85.46875 67.929688 85.46875 67.78125 C 85.46875 67.3125 85.464844 66.839844 85.457031 66.367188 C 85.457031 66.039062 85.457031 65.714844 85.457031 65.386719 C 85.453125 64.527344 85.449219 63.664062 85.441406 62.804688 C 85.433594 61.925781 85.433594 61.046875 85.429688 60.171875 C 85.421875 58.445312 85.414062 56.722656 85.398438 55 C 84.886719 55 84.691406 55.164062 84.261719 55.441406 Z M 84.261719 55.441406 "/>
<path style=" stroke:none;fill-rule:nonzero;fill:rgb(90.196079%,89.803922%,89.803922%);fill-opacity:1;" d="M 17.398438 33.199219 C 18.160156 33.285156 18.609375 33.5 19.210938 33.960938 C 20.203125 34.683594 21.234375 35.3125 22.289062 35.9375 C 23.941406 36.917969 25.570312 37.929688 27.195312 38.960938 C 28.304688 39.667969 29.421875 40.367188 30.539062 41.0625 C 30.738281 41.1875 30.9375 41.3125 31.144531 41.441406 C 31.554688 41.699219 31.964844 41.953125 32.375 42.210938 C 33.621094 42.988281 34.863281 43.765625 36.109375 44.542969 C 36.976562 45.085938 37.84375 45.628906 38.714844 46.167969 C 39.355469 46.566406 39.992188 46.96875 40.632812 47.371094 C 41.023438 47.613281 41.417969 47.859375 41.808594 48.101562 C 42.070312 48.261719 42.328125 48.425781 42.585938 48.585938 C 42.707031 48.660156 42.828125 48.734375 42.949219 48.808594 C 43.777344 49.332031 43.777344 49.332031 44 50 C 43.902344 50.058594 43.804688 50.117188 43.703125 50.175781 C 41.546875 51.453125 39.410156 52.761719 37.300781 54.113281 C 34.242188 56.070312 31.160156 57.980469 28.074219 59.886719 C 26.667969 60.757812 25.269531 61.628906 23.871094 62.503906 C 23.300781 62.863281 22.726562 63.21875 22.15625 63.578125 C 21.828125 63.78125 21.828125 63.78125 21.496094 63.988281 C 21.0625 64.257812 20.628906 64.53125 20.195312 64.800781 C 20 64.921875 19.800781 65.046875 19.597656 65.175781 C 19.417969 65.285156 19.242188 65.398438 19.058594 65.511719 C 18.703125 65.734375 18.351562 65.964844 18 66.199219 C 17.734375 66.199219 17.472656 66.199219 17.199219 66.199219 C 17.195312 61.925781 17.191406 57.652344 17.191406 53.378906 C 17.1875 51.398438 17.1875 49.414062 17.183594 47.429688 C 17.183594 45.699219 17.179688 43.972656 17.179688 42.242188 C 17.179688 41.328125 17.179688 40.410156 17.179688 39.496094 C 17.175781 38.632812 17.175781 37.773438 17.175781 36.914062 C 17.175781 36.59375 17.175781 36.277344 17.175781 35.960938 C 17.175781 35.53125 17.175781 35.101562 17.175781 34.667969 C 17.175781 34.425781 17.175781 34.1875 17.175781 33.9375 C 17.199219 33.398438 17.199219 33.398438 17.398438 33.199219 Z M 17.601562 33.601562 C 17.601562 44.292969 17.601562 54.984375 17.601562 66 C 18.324219 65.539062 19.050781 65.074219 19.800781 64.601562 C 20.445312 64.210938 21.089844 63.820312 21.738281 63.4375 C 23.796875 62.207031 25.832031 60.941406 27.859375 59.65625 C 28.164062 59.460938 28.46875 59.269531 28.773438 59.074219 C 28.929688 58.976562 29.085938 58.878906 29.246094 58.777344 C 30.613281 57.914062 31.988281 57.070312 33.363281 56.226562 C 35.386719 54.984375 37.390625 53.722656 39.390625 52.445312 C 40.785156 51.550781 42.191406 50.675781 43.601562 49.800781 C 42.929688 49.246094 42.257812 48.769531 41.511719 48.324219 C 40.261719 47.570312 39.03125 46.785156 37.800781 46 C 36.449219 45.136719 35.09375 44.28125 33.722656 43.445312 C 32.722656 42.832031 31.730469 42.210938 30.738281 41.585938 C 30.53125 41.460938 30.328125 41.332031 30.117188 41.199219 C 29.691406 40.933594 29.265625 40.667969 28.84375 40.402344 C 27.796875 39.746094 26.746094 39.09375 25.699219 38.4375 C 25.300781 38.1875 24.902344 37.9375 24.503906 37.691406 C 23.824219 37.265625 23.144531 36.839844 22.464844 36.417969 C 22.324219 36.328125 22.183594 36.242188 22.039062 36.152344 C 21.777344 35.988281 21.515625 35.824219 21.253906 35.660156 C 20.296875 35.0625 19.351562 34.453125 18.40625 33.835938 C 18.019531 33.566406 18.019531 33.566406 17.601562 33.601562 Z M 17.601562 33.601562 "/>
</g>
</svg>
