<?xml version="1.0" encoding="UTF-8"?>
<svg xmlns="http://www.w3.org/2000/svg" xmlns:xlink="http://www.w3.org/1999/xlink" width="100px" height="100px" viewBox="0 0 100 100" version="1.1">
<g id="surface1">
<path style=" stroke:none;fill-rule:nonzero;fill:rgb(98.823529%,98.823529%,98.823529%);fill-opacity:1;" d="M 67.800781 4.199219 C 73.164062 6.414062 76.183594 15.761719 78.199219 20.601562 C 81.53125 28.648438 84.417969 36.875 87.292969 45.09375 C 92.296875 59.449219 92.296875 59.449219 97.828125 73.609375 C 98.238281 74.601562 98.644531 75.59375 99.046875 76.589844 C 99.144531 76.828125 99.242188 77.0625 99.339844 77.308594 C 99.726562 78.339844 100.066406 79.289062 100 80.398438 C 96.925781 78.949219 94.253906 76.304688 91.890625 73.890625 C 91.34375 73.34375 90.765625 72.835938 90.175781 72.332031 C 89.78125 71.984375 89.425781 71.609375 89.0625 71.226562 C 86.652344 68.796875 83.574219 67.289062 80.136719 67.136719 C 76.679688 67.25 74.066406 68.75 71.679688 71.121094 C 71.414062 71.386719 71.140625 71.648438 70.867188 71.910156 C 69.863281 72.886719 68.957031 73.910156 68.082031 75.003906 C 67.535156 75.679688 66.96875 76.339844 66.398438 77 C 65.691406 77.820312 64.996094 78.644531 64.3125 79.488281 C 59.203125 85.769531 53.277344 92.941406 45.238281 95.375 C 45.097656 95.417969 44.957031 95.460938 44.808594 95.503906 C 43.910156 95.761719 43.132812 95.839844 42.199219 95.800781 C 41.613281 94.523438 41.097656 93.226562 40.613281 91.90625 C 40.460938 91.503906 40.3125 91.097656 40.160156 90.691406 C 40.082031 90.484375 40.007812 90.273438 39.925781 90.058594 C 38.570312 86.398438 37.199219 82.761719 35.601562 79.199219 C 35.515625 79.011719 35.433594 78.824219 35.347656 78.628906 C 33.890625 75.351562 32.085938 71.324219 28.5 69.925781 C 26.773438 69.496094 25.082031 69.808594 23.394531 70.269531 C 21.945312 70.589844 21.945312 70.589844 21.222656 70.195312 C 20.78125 69.894531 20.359375 69.574219 19.9375 69.25 C 19.613281 69.007812 19.292969 68.769531 18.96875 68.527344 C 18.726562 68.34375 18.726562 68.34375 18.476562 68.15625 C 17.769531 67.628906 17.046875 67.121094 16.324219 66.613281 C 16.117188 66.464844 16.117188 66.464844 15.90625 66.316406 C 14.816406 65.550781 13.726562 64.789062 12.636719 64.023438 C 12.386719 63.847656 12.386719 63.847656 12.132812 63.671875 C 11.285156 63.078125 10.4375 62.488281 9.589844 61.898438 C 7.757812 60.625 5.941406 59.332031 4.152344 58 C 3.421875 57.457031 2.6875 56.917969 1.941406 56.402344 C 1.742188 56.261719 1.742188 56.261719 1.539062 56.125 C 1.296875 55.953125 1.050781 55.785156 0.800781 55.621094 C 0.480469 55.398438 0.480469 55.398438 0 55 C 0 54.800781 0 54.605469 0 54.398438 C 2.066406 53.53125 4.132812 52.664062 6.199219 51.800781 C 6.375 51.726562 6.550781 51.652344 6.730469 51.578125 C 8.078125 51.011719 9.425781 50.449219 10.773438 49.886719 C 10.976562 49.804688 11.175781 49.71875 11.382812 49.632812 C 13.761719 48.640625 16.144531 47.65625 18.53125 46.6875 C 18.753906 46.597656 18.980469 46.507812 19.210938 46.414062 C 20.289062 45.976562 21.367188 45.539062 22.445312 45.105469 C 22.835938 44.949219 23.226562 44.789062 23.617188 44.632812 C 23.792969 44.5625 23.96875 44.492188 24.148438 44.421875 C 25.726562 43.78125 27.242188 43.121094 28.375 41.8125 C 28.542969 41.621094 28.707031 41.429688 28.878906 41.230469 C 29.53125 40.449219 30.152344 39.648438 30.773438 38.84375 C 31.542969 37.855469 32.363281 36.933594 33.21875 36.023438 C 33.609375 35.628906 33.609375 35.628906 33.800781 35.199219 C 33.933594 35.199219 34.0625 35.199219 34.199219 35.199219 C 34.199219 35.066406 34.199219 34.9375 34.199219 34.800781 C 34.515625 34.503906 34.847656 34.222656 35.1875 33.949219 C 35.371094 33.800781 35.554688 33.652344 35.742188 33.496094 C 35.960938 33.328125 36.179688 33.164062 36.398438 33 C 36.527344 32.902344 36.65625 32.808594 36.789062 32.707031 C 38.027344 31.824219 39.335938 31.320312 40.761719 30.8125 C 43.742188 29.75 46.074219 28.316406 48.398438 26.199219 C 48.671875 25.957031 48.671875 25.957031 48.949219 25.710938 C 51.941406 22.886719 54.105469 19.304688 56.199219 15.800781 C 56.707031 14.949219 57.21875 14.101562 57.730469 13.253906 C 57.941406 12.898438 58.152344 12.542969 58.363281 12.1875 C 63.546875 3.5625 63.546875 3.5625 67.800781 4.199219 Z M 55.800781 21.800781 C 56 22.199219 56 22.199219 56 22.199219 Z M 55.601562 22.199219 C 55.53125 22.285156 55.460938 22.371094 55.390625 22.460938 C 54.035156 24.148438 52.683594 25.828125 51.199219 27.398438 C 51.03125 27.582031 50.863281 27.761719 50.691406 27.945312 C 47.925781 30.832031 44.578125 32.5625 40.859375 33.894531 C 38.910156 34.609375 37.496094 35.78125 36 37.199219 C 35.863281 37.332031 35.722656 37.460938 35.582031 37.59375 C 33.710938 39.40625 32.175781 41.53125 30.601562 43.601562 C 31.449219 44.507812 32.398438 45.226562 33.398438 45.960938 C 33.757812 46.226562 34.113281 46.492188 34.472656 46.757812 C 34.65625 46.894531 34.839844 47.03125 35.03125 47.175781 C 36.15625 48.015625 37.269531 48.871094 38.386719 49.726562 C 38.710938 49.972656 39.03125 50.21875 39.359375 50.464844 C 39.644531 50.679688 39.929688 50.898438 40.210938 51.121094 C 40.527344 51.363281 40.863281 51.585938 41.199219 51.800781 C 41.910156 51.5625 41.976562 51.410156 42.355469 50.789062 C 42.515625 50.53125 42.515625 50.53125 42.675781 50.273438 C 42.785156 50.085938 42.898438 49.902344 43.011719 49.710938 C 43.128906 49.523438 43.246094 49.332031 43.363281 49.132812 C 44.328125 47.542969 45.257812 45.929688 46.136719 44.289062 C 46.320312 43.949219 46.503906 43.613281 46.6875 43.273438 C 49.640625 37.835938 52.035156 32.121094 54.359375 26.394531 C 54.574219 25.859375 54.796875 25.328125 55.019531 24.796875 C 55.136719 24.523438 55.25 24.25 55.363281 23.976562 C 55.453125 23.757812 55.546875 23.535156 55.640625 23.3125 C 55.859375 22.785156 55.859375 22.785156 55.601562 22.199219 Z M 27.515625 46.136719 C 27.328125 46.210938 27.144531 46.285156 26.953125 46.363281 C 26.648438 46.488281 26.648438 46.488281 26.339844 46.613281 C 26.128906 46.699219 25.917969 46.785156 25.699219 46.871094 C 25.007812 47.152344 24.316406 47.429688 23.625 47.710938 C 23.148438 47.90625 22.671875 48.097656 22.195312 48.292969 C 18.386719 49.835938 14.585938 51.402344 10.800781 53 C 10.667969 53.054688 10.535156 53.113281 10.398438 53.167969 C 8.796875 53.84375 7.199219 54.519531 5.601562 55.199219 C 5.601562 55.332031 5.601562 55.464844 5.601562 55.601562 C 5.914062 55.867188 5.914062 55.867188 6.324219 56.128906 C 6.480469 56.234375 6.636719 56.339844 6.796875 56.449219 C 6.96875 56.558594 7.136719 56.671875 7.3125 56.789062 C 8.535156 57.609375 9.742188 58.433594 10.925781 59.3125 C 13.316406 61.082031 15.761719 62.773438 18.199219 64.476562 C 18.390625 64.609375 18.582031 64.742188 18.777344 64.878906 C 19.144531 65.132812 19.511719 65.386719 19.878906 65.640625 C 20.222656 65.875 20.5625 66.121094 20.894531 66.367188 C 21.125 66.535156 21.125 66.535156 21.363281 66.707031 C 21.496094 66.808594 21.628906 66.90625 21.765625 67.011719 C 22.398438 67.285156 22.738281 67.183594 23.398438 67 C 23.976562 66.761719 24.53125 66.488281 25.089844 66.207031 C 25.25 66.125 25.410156 66.046875 25.574219 65.960938 C 25.914062 65.792969 26.253906 65.621094 26.59375 65.449219 C 27.105469 65.191406 27.617188 64.9375 28.128906 64.679688 C 33.226562 62.128906 36.46875 59.011719 39.800781 54.398438 C 39.007812 53.566406 38.15625 52.878906 37.238281 52.1875 C 37.089844 52.074219 36.9375 51.960938 36.785156 51.84375 C 35.664062 50.996094 34.539062 50.152344 33.410156 49.308594 C 32.6875 48.769531 31.96875 48.222656 31.257812 47.671875 C 31.023438 47.492188 31.023438 47.492188 30.785156 47.308594 C 30.484375 47.074219 30.183594 46.839844 29.882812 46.601562 C 29.746094 46.496094 29.609375 46.390625 29.46875 46.285156 C 29.289062 46.144531 29.289062 46.144531 29.105469 46 C 28.53125 45.625 28.109375 45.898438 27.515625 46.136719 Z M 27.515625 46.136719 "/>
</g>
</svg>
