<?xml version="1.0" encoding="UTF-8"?>
<svg xmlns="http://www.w3.org/2000/svg" xmlns:xlink="http://www.w3.org/1999/xlink" width="100px" height="100px" viewBox="0 0 100 100" version="1.1">
<g id="surface1">
<path style=" stroke:none;fill-rule:nonzero;fill:rgb(99.607843%,99.607843%,99.607843%);fill-opacity:1;" d="M 40.101562 12.949219 C 40.351562 12.949219 40.601562 12.945312 40.859375 12.945312 C 44.328125 12.953125 44.328125 12.953125 45.601562 13.800781 C 45.601562 13.933594 45.601562 14.0625 45.601562 14.199219 C 45.996094 14.265625 46.390625 14.332031 46.800781 14.398438 C 46.800781 14.53125 46.800781 14.664062 46.800781 14.800781 C 46.933594 14.800781 47.0625 14.800781 47.199219 14.800781 C 47.523438 15.074219 47.523438 15.074219 47.800781 15.398438 C 47.800781 15.53125 47.800781 15.664062 47.800781 15.800781 C 47.996094 15.867188 48.195312 15.933594 48.398438 16 C 48.398438 16.132812 48.398438 16.265625 48.398438 16.398438 C 48.53125 16.398438 48.664062 16.398438 48.800781 16.398438 C 48.800781 16.53125 48.800781 16.664062 48.800781 16.800781 C 48.996094 16.867188 49.195312 16.933594 49.398438 17 C 49.398438 17.132812 49.398438 17.265625 49.398438 17.398438 C 49.53125 17.398438 49.664062 17.398438 49.800781 17.398438 C 49.800781 17.597656 49.800781 17.796875 49.800781 18 C 49.933594 18 50.0625 18 50.199219 18 C 50.265625 18.460938 50.332031 18.925781 50.398438 19.398438 C 50.53125 19.398438 50.664062 19.398438 50.800781 19.398438 C 50.800781 19.730469 50.800781 20.058594 50.800781 20.398438 C 50.933594 20.398438 51.0625 20.398438 51.199219 20.398438 C 51.199219 22.511719 51.199219 24.625 51.199219 26.800781 C 50.625 26.804688 50.054688 26.808594 49.460938 26.8125 C 49.285156 26.8125 49.105469 26.816406 48.921875 26.816406 C 48.121094 26.820312 47.382812 26.800781 46.601562 26.601562 C 46.601562 26.46875 46.601562 26.335938 46.601562 26.199219 C 46.269531 26.199219 45.941406 26.199219 45.601562 26.199219 C 45.601562 26.066406 45.601562 25.9375 45.601562 25.800781 C 45.007812 25.699219 45.007812 25.699219 44.398438 25.601562 C 44.398438 25.46875 44.398438 25.335938 44.398438 25.199219 C 44.285156 25.175781 44.167969 25.152344 44.050781 25.125 C 43.59375 25 43.214844 24.824219 42.800781 24.601562 C 42.800781 24.46875 42.800781 24.335938 42.800781 24.199219 C 42.671875 24.144531 42.542969 24.09375 42.414062 24.039062 C 42 23.800781 42 23.800781 41.800781 23.199219 C 41.398438 23.054688 41.398438 23.054688 41 23 C 40.980469 22.871094 40.957031 22.746094 40.9375 22.613281 C 40.890625 22.476562 40.847656 22.339844 40.800781 22.199219 C 40.601562 22.132812 40.402344 22.066406 40.199219 22 C 40.199219 21.867188 40.199219 21.734375 40.199219 21.601562 C 40.066406 21.601562 39.9375 21.601562 39.800781 21.601562 C 39.800781 21.402344 39.800781 21.203125 39.800781 21 C 39.667969 21 39.535156 21 39.398438 21 C 39.335938 20.671875 39.269531 20.339844 39.199219 20 C 39.066406 20 38.9375 20 38.800781 20 C 38.800781 19.867188 38.800781 19.734375 38.800781 19.601562 C 38.535156 19.601562 38.273438 19.601562 38 19.601562 C 37.933594 20.0625 37.867188 20.523438 37.800781 21 C 37.933594 21 38.0625 21 38.199219 21 C 38.265625 21.328125 38.332031 21.660156 38.398438 22 C 38.53125 22 38.664062 22 38.800781 22 C 38.867188 22.328125 38.933594 22.660156 39 23 C 39.199219 23.066406 39.394531 23.132812 39.601562 23.199219 C 39.601562 23.332031 39.601562 23.464844 39.601562 23.601562 C 39.730469 23.601562 39.863281 23.601562 40 23.601562 C 40 23.730469 40 23.863281 40 24 C 40.199219 24.066406 40.394531 24.132812 40.601562 24.199219 C 40.601562 24.332031 40.601562 24.464844 40.601562 24.601562 C 40.863281 24.664062 41.128906 24.730469 41.398438 24.800781 C 41.464844 25.0625 41.53125 25.328125 41.601562 25.601562 C 41.929688 25.664062 42.261719 25.730469 42.601562 25.800781 C 42.601562 25.933594 42.601562 26.0625 42.601562 26.199219 C 42.730469 26.199219 42.863281 26.199219 43 26.199219 C 43 26.398438 43 26.597656 43 26.800781 C 42.472656 26.800781 41.945312 26.800781 41.398438 26.800781 C 41.398438 26.933594 41.398438 27.0625 41.398438 27.199219 C 41.117188 27.300781 40.832031 27.402344 40.550781 27.5 C 40.390625 27.554688 40.234375 27.613281 40.070312 27.667969 C 39.601562 27.800781 39.601562 27.800781 38.800781 27.800781 C 38.800781 27.933594 38.800781 28.0625 38.800781 28.199219 C 38.671875 28.226562 38.542969 28.25 38.414062 28.273438 C 38.277344 28.316406 38.140625 28.359375 38 28.398438 C 37.933594 28.53125 37.867188 28.664062 37.800781 28.800781 C 37.535156 28.800781 37.273438 28.800781 37 28.800781 C 37 28.933594 37 29.0625 37 29.199219 C 36.800781 29.265625 36.605469 29.332031 36.398438 29.398438 C 36.296875 29.503906 36.195312 29.605469 36.085938 29.710938 C 35.992188 29.808594 35.898438 29.902344 35.800781 30 C 35.667969 30 35.535156 30 35.398438 30 C 35.398438 30.265625 35.398438 30.527344 35.398438 30.800781 C 35.992188 30.800781 36.589844 30.800781 37.199219 30.800781 C 37.199219 30.667969 37.199219 30.535156 37.199219 30.398438 C 37.398438 30.398438 37.597656 30.398438 37.800781 30.398438 C 37.800781 30.269531 37.800781 30.136719 37.800781 30 C 38.296875 29.902344 38.296875 29.902344 38.800781 29.800781 C 38.800781 29.667969 38.800781 29.535156 38.800781 29.398438 C 40.101562 28.800781 40.101562 28.800781 41 28.800781 C 41 28.667969 41 28.535156 41 28.398438 C 41.808594 28.207031 42.566406 28.175781 43.398438 28.171875 C 43.535156 28.171875 43.667969 28.171875 43.804688 28.171875 C 44.089844 28.171875 44.371094 28.171875 44.65625 28.175781 C 45.078125 28.175781 45.503906 28.175781 45.929688 28.171875 C 46.207031 28.171875 46.484375 28.171875 46.761719 28.171875 C 47.132812 28.171875 47.132812 28.171875 47.511719 28.175781 C 48.742188 28.210938 49.972656 28.3125 51.199219 28.398438 C 51.199219 32.820312 51.199219 37.242188 51.199219 41.800781 C 50.871094 41.800781 50.539062 41.800781 50.199219 41.800781 C 50.199219 41.667969 50.199219 41.535156 50.199219 41.398438 C 49.871094 41.335938 49.539062 41.269531 49.199219 41.199219 C 49.199219 41.066406 49.199219 40.9375 49.199219 40.800781 C 49.003906 40.800781 48.804688 40.800781 48.601562 40.800781 C 48.601562 40.667969 48.601562 40.535156 48.601562 40.398438 C 47.941406 40.335938 47.28125 40.269531 46.601562 40.199219 C 46.601562 40.066406 46.601562 39.9375 46.601562 39.800781 C 44.554688 39.800781 42.507812 39.800781 40.398438 39.800781 C 40.398438 39.933594 40.398438 40.0625 40.398438 40.199219 C 40.113281 40.300781 39.824219 40.402344 39.539062 40.5 C 39.296875 40.582031 39.296875 40.582031 39.050781 40.667969 C 38.601562 40.800781 38.601562 40.800781 38 40.800781 C 38 40.933594 38 41.0625 38 41.199219 C 37.605469 41.265625 37.207031 41.332031 36.800781 41.398438 C 36.800781 41.53125 36.800781 41.664062 36.800781 41.800781 C 36.601562 41.800781 36.402344 41.800781 36.199219 41.800781 C 36.199219 41.933594 36.199219 42.0625 36.199219 42.199219 C 35.738281 42.265625 35.277344 42.332031 34.800781 42.398438 C 34.734375 41.476562 34.667969 40.550781 34.601562 39.601562 C 34.46875 39.601562 34.335938 39.601562 34.199219 39.601562 C 34.199219 39.335938 34.199219 39.070312 34.199219 38.800781 C 34.066406 38.800781 33.9375 38.800781 33.800781 38.800781 C 33.734375 38.402344 33.667969 38.007812 33.601562 37.601562 C 33.46875 37.601562 33.335938 37.601562 33.199219 37.601562 C 32.875 37.324219 32.875 37.324219 32.601562 37 C 32.601562 36.867188 32.601562 36.734375 32.601562 36.601562 C 32.46875 36.601562 32.335938 36.601562 32.199219 36.601562 C 32.046875 36.40625 31.894531 36.210938 31.738281 36.011719 C 31.355469 35.53125 31.246094 35.414062 30.636719 35.226562 C 30.492188 35.214844 30.347656 35.207031 30.199219 35.199219 C 30.199219 35.660156 30.199219 36.125 30.199219 36.601562 C 30.332031 36.601562 30.464844 36.601562 30.601562 36.601562 C 30.925781 36.875 30.925781 36.875 31.199219 37.199219 C 31.199219 37.332031 31.199219 37.464844 31.199219 37.601562 C 31.496094 37.699219 31.496094 37.699219 31.800781 37.800781 C 31.800781 37.933594 31.800781 38.0625 31.800781 38.199219 C 31.933594 38.199219 32.0625 38.199219 32.199219 38.199219 C 32.199219 38.332031 32.199219 38.464844 32.199219 38.601562 C 32.332031 38.601562 32.464844 38.601562 32.601562 38.601562 C 32.664062 38.996094 32.730469 39.390625 32.800781 39.800781 C 32.933594 39.800781 33.0625 39.800781 33.199219 39.800781 C 33.199219 40.128906 33.199219 40.460938 33.199219 40.800781 C 33.332031 40.800781 33.464844 40.800781 33.601562 40.800781 C 33.601562 41.988281 33.601562 43.175781 33.601562 44.398438 C 33.46875 44.398438 33.335938 44.398438 33.199219 44.398438 C 33.199219 44.730469 33.199219 45.058594 33.199219 45.398438 C 33.066406 45.398438 32.9375 45.398438 32.800781 45.398438 C 32.734375 45.730469 32.667969 46.058594 32.601562 46.398438 C 32.46875 46.398438 32.335938 46.398438 32.199219 46.398438 C 32.199219 46.597656 32.199219 46.796875 32.199219 47 C 32.066406 47 31.9375 47 31.800781 47 C 31.734375 47.199219 31.667969 47.394531 31.601562 47.601562 C 31.46875 47.601562 31.335938 47.601562 31.199219 47.601562 C 31.199219 47.730469 31.199219 47.863281 31.199219 48 C 31.066406 48 30.9375 48 30.800781 48 C 30.734375 48.199219 30.667969 48.394531 30.601562 48.601562 C 30.46875 48.601562 30.335938 48.601562 30.199219 48.601562 C 30.132812 48.796875 30.066406 48.996094 30 49.199219 C 29.734375 49.199219 29.472656 49.199219 29.199219 49.199219 C 29.199219 49.332031 29.199219 49.464844 29.199219 49.601562 C 29.003906 49.601562 28.804688 49.601562 28.601562 49.601562 C 28.390625 50.226562 28.414062 50.398438 28.601562 51 C 29.0625 51 29.523438 51 30 51 C 30 50.867188 30 50.734375 30 50.601562 C 30.132812 50.601562 30.265625 50.601562 30.398438 50.601562 C 30.398438 50.46875 30.398438 50.335938 30.398438 50.199219 C 30.546875 50.113281 30.695312 50.027344 30.851562 49.9375 C 31.429688 49.625 31.429688 49.625 31.8125 49.074219 C 32.21875 48.578125 32.378906 48.464844 33 48.398438 C 33.066406 48.136719 33.132812 47.871094 33.199219 47.601562 C 33.332031 47.601562 33.464844 47.601562 33.601562 47.601562 C 33.699219 47.007812 33.699219 47.007812 33.800781 46.398438 C 33.933594 46.398438 34.0625 46.398438 34.199219 46.398438 C 34.199219 46.203125 34.199219 46.003906 34.199219 45.800781 C 34.332031 45.800781 34.464844 45.800781 34.601562 45.800781 C 34.664062 45.535156 34.730469 45.273438 34.800781 45 C 35.0625 44.933594 35.328125 44.867188 35.601562 44.800781 C 35.664062 44.535156 35.730469 44.273438 35.800781 44 C 35.929688 43.980469 36.054688 43.957031 36.1875 43.9375 C 36.324219 43.890625 36.460938 43.847656 36.601562 43.800781 C 36.664062 43.601562 36.730469 43.402344 36.800781 43.199219 C 36.933594 43.199219 37.0625 43.199219 37.199219 43.199219 C 37.199219 43.066406 37.199219 42.9375 37.199219 42.800781 C 37.398438 42.800781 37.597656 42.800781 37.800781 42.800781 C 37.800781 42.667969 37.800781 42.535156 37.800781 42.398438 C 38.261719 42.335938 38.722656 42.269531 39.199219 42.199219 C 39.199219 42.066406 39.199219 41.9375 39.199219 41.800781 C 39.953125 41.308594 40.699219 41.347656 41.566406 41.359375 C 41.714844 41.363281 41.863281 41.363281 42.019531 41.363281 C 42.496094 41.363281 42.972656 41.371094 43.449219 41.375 C 43.773438 41.378906 44.097656 41.378906 44.421875 41.378906 C 45.214844 41.386719 46.007812 41.390625 46.800781 41.398438 C 46.800781 41.53125 46.800781 41.664062 46.800781 41.800781 C 47.128906 41.800781 47.460938 41.800781 47.800781 41.800781 C 47.800781 41.933594 47.800781 42.0625 47.800781 42.199219 C 48.261719 42.265625 48.722656 42.332031 49.199219 42.398438 C 49.199219 42.53125 49.199219 42.664062 49.199219 42.800781 C 49.398438 42.800781 49.597656 42.800781 49.800781 42.800781 C 49.800781 42.933594 49.800781 43.0625 49.800781 43.199219 C 50.128906 43.265625 50.460938 43.332031 50.800781 43.398438 C 50.800781 43.53125 50.800781 43.664062 50.800781 43.800781 C 50.933594 43.800781 51.0625 43.800781 51.199219 43.800781 C 51.199219 46.242188 51.199219 48.683594 51.199219 51.199219 C 50.539062 51.199219 49.878906 51.199219 49.199219 51.199219 C 49.199219 51.332031 49.199219 51.464844 49.199219 51.601562 C 48.40625 51.664062 47.617188 51.730469 46.800781 51.800781 C 46.800781 51.933594 46.800781 52.0625 46.800781 52.199219 C 46.601562 52.199219 46.402344 52.199219 46.199219 52.199219 C 46.199219 52.332031 46.199219 52.464844 46.199219 52.601562 C 44.875 53.199219 44.875 53.199219 44.199219 53.199219 C 44.132812 53.398438 44.066406 53.597656 44 53.800781 C 43.867188 53.800781 43.734375 53.800781 43.601562 53.800781 C 43.570312 53.980469 43.570312 53.980469 43.539062 54.164062 C 43.375 54.683594 43.242188 54.878906 42.800781 55.199219 C 42.164062 55.335938 42.164062 55.335938 41.601562 55.398438 C 41.601562 55.730469 41.601562 56.058594 41.601562 56.398438 C 41.730469 56.398438 41.863281 56.398438 42 56.398438 C 42 56.53125 42 56.664062 42 56.800781 C 42.265625 56.800781 42.527344 56.800781 42.800781 56.800781 C 42.867188 56.601562 42.933594 56.402344 43 56.199219 C 43.132812 56.199219 43.265625 56.199219 43.398438 56.199219 C 43.464844 55.9375 43.53125 55.671875 43.601562 55.398438 C 43.863281 55.335938 44.128906 55.269531 44.398438 55.199219 C 44.398438 55.066406 44.398438 54.9375 44.398438 54.800781 C 44.597656 54.800781 44.796875 54.800781 45 54.800781 C 45 54.667969 45 54.535156 45 54.398438 C 45.328125 54.335938 45.660156 54.269531 46 54.199219 C 46 54.066406 46 53.9375 46 53.800781 C 46.527344 53.734375 47.054688 53.667969 47.601562 53.601562 C 47.601562 53.46875 47.601562 53.335938 47.601562 53.199219 C 47.929688 53.199219 48.261719 53.199219 48.601562 53.199219 C 48.601562 53.066406 48.601562 52.9375 48.601562 52.800781 C 49.457031 52.800781 50.316406 52.800781 51.199219 52.800781 C 51.199219 59.136719 51.199219 65.472656 51.199219 72 C 50.40625 72 49.617188 72 48.800781 72 C 48.800781 72.132812 48.800781 72.265625 48.800781 72.398438 C 48.46875 72.398438 48.140625 72.398438 47.800781 72.398438 C 47.800781 72.53125 47.800781 72.664062 47.800781 72.800781 C 47.273438 72.867188 46.742188 72.933594 46.199219 73 C 46.199219 73.132812 46.199219 73.265625 46.199219 73.398438 C 45.972656 73.492188 45.746094 73.582031 45.511719 73.675781 C 44.789062 73.914062 44.789062 73.914062 44.601562 74.398438 C 44.085938 74.523438 44.085938 74.523438 43.601562 74.601562 C 43.601562 74.730469 43.601562 74.863281 43.601562 75 C 43.46875 75 43.335938 75 43.199219 75 C 43.132812 75.199219 43.066406 75.394531 43 75.601562 C 42.867188 75.601562 42.734375 75.601562 42.601562 75.601562 C 42.601562 75.730469 42.601562 75.863281 42.601562 76 C 42.324219 76.324219 42.324219 76.324219 42 76.601562 C 41.867188 76.601562 41.734375 76.601562 41.601562 76.601562 C 41.535156 76.796875 41.46875 76.996094 41.398438 77.199219 C 41.269531 77.199219 41.136719 77.199219 41 77.199219 C 41 77.464844 41 77.726562 41 78 C 41.648438 78.117188 41.648438 78.117188 42.398438 78 C 42.773438 77.664062 43.054688 77.3125 43.347656 76.90625 C 43.429688 76.804688 43.515625 76.703125 43.601562 76.601562 C 43.730469 76.601562 43.863281 76.601562 44 76.601562 C 44 76.46875 44 76.335938 44 76.199219 C 44.871094 75.398438 44.871094 75.398438 45.601562 75.398438 C 45.601562 75.269531 45.601562 75.136719 45.601562 75 C 46.925781 74.398438 46.925781 74.398438 47.601562 74.398438 C 47.601562 74.269531 47.601562 74.136719 47.601562 74 C 47.929688 74 48.261719 74 48.601562 74 C 48.601562 73.867188 48.601562 73.734375 48.601562 73.601562 C 49.457031 73.535156 50.316406 73.46875 51.199219 73.398438 C 51.199219 75.777344 51.199219 78.152344 51.199219 80.601562 C 51.066406 80.601562 50.9375 80.601562 50.800781 80.601562 C 50.800781 80.796875 50.800781 80.996094 50.800781 81.199219 C 50.667969 81.199219 50.535156 81.199219 50.398438 81.199219 C 50.335938 81.597656 50.269531 81.992188 50.199219 82.398438 C 50.066406 82.398438 49.9375 82.398438 49.800781 82.398438 C 49.800781 82.53125 49.800781 82.664062 49.800781 82.800781 C 49.667969 82.800781 49.535156 82.800781 49.398438 82.800781 C 49.335938 82.996094 49.269531 83.195312 49.199219 83.398438 C 49.066406 83.398438 48.9375 83.398438 48.800781 83.398438 C 48.800781 83.53125 48.800781 83.664062 48.800781 83.800781 C 48.667969 83.800781 48.535156 83.800781 48.398438 83.800781 C 48.335938 83.996094 48.269531 84.195312 48.199219 84.398438 C 48.066406 84.398438 47.9375 84.398438 47.800781 84.398438 C 47.800781 84.53125 47.800781 84.664062 47.800781 84.800781 C 47.539062 85.125 47.539062 85.125 47.199219 85.398438 C 47.003906 85.398438 46.804688 85.398438 46.601562 85.398438 C 46.601562 85.53125 46.601562 85.664062 46.601562 85.800781 C 46.136719 85.867188 45.675781 85.933594 45.199219 86 C 45.199219 86.132812 45.199219 86.265625 45.199219 86.398438 C 45.003906 86.398438 44.804688 86.398438 44.601562 86.398438 C 44.601562 86.53125 44.601562 86.664062 44.601562 86.800781 C 42.957031 87.242188 41.328125 87.261719 39.644531 87.253906 C 39.1875 87.25 38.734375 87.253906 38.277344 87.253906 C 36.804688 87.257812 35.425781 87.207031 34 86.800781 C 34 86.667969 34 86.535156 34 86.398438 C 33.734375 86.398438 33.472656 86.398438 33.199219 86.398438 C 33.199219 86.269531 33.199219 86.136719 33.199219 86 C 32.871094 85.933594 32.539062 85.867188 32.199219 85.800781 C 32.199219 85.667969 32.199219 85.535156 32.199219 85.398438 C 32.003906 85.398438 31.804688 85.398438 31.601562 85.398438 C 31.261719 85.125 31.261719 85.125 31 84.800781 C 31 84.667969 31 84.535156 31 84.398438 C 30.800781 84.335938 30.605469 84.269531 30.398438 84.199219 C 30.398438 84.066406 30.398438 83.9375 30.398438 83.800781 C 30.269531 83.800781 30.136719 83.800781 30 83.800781 C 30 83.667969 30 83.535156 30 83.398438 C 29.800781 83.335938 29.605469 83.269531 29.398438 83.199219 C 29.398438 82.9375 29.398438 82.671875 29.398438 82.398438 C 29.269531 82.398438 29.136719 82.398438 29 82.398438 C 29 82.203125 29 82.003906 29 81.800781 C 28.867188 81.800781 28.734375 81.800781 28.601562 81.800781 C 28.535156 81.402344 28.46875 81.007812 28.398438 80.601562 C 28.269531 80.601562 28.136719 80.601562 28 80.601562 C 28 80.269531 28 79.941406 28 79.601562 C 27.867188 79.601562 27.734375 79.601562 27.601562 79.601562 C 27.601562 78.28125 27.601562 76.960938 27.601562 75.601562 C 27.730469 75.601562 27.863281 75.601562 28 75.601562 C 28 75.203125 28 74.808594 28 74.398438 C 28.132812 74.398438 28.265625 74.398438 28.398438 74.398438 C 28.464844 73.9375 28.53125 73.476562 28.601562 73 C 28.730469 73 28.863281 73 29 73 C 29 72.800781 29 72.605469 29 72.398438 C 29.132812 72.398438 29.265625 72.398438 29.398438 72.398438 C 29.464844 72.203125 29.53125 72.003906 29.601562 71.800781 C 29.730469 71.800781 29.863281 71.800781 30 71.800781 C 30 71.667969 30 71.535156 30 71.398438 C 30.132812 71.398438 30.265625 71.398438 30.398438 71.398438 C 30.464844 71.203125 30.53125 71.003906 30.601562 70.800781 C 30.730469 70.800781 30.863281 70.800781 31 70.800781 C 31 70.667969 31 70.535156 31 70.398438 C 31.273438 70.074219 31.273438 70.074219 31.601562 69.800781 C 31.730469 69.800781 31.863281 69.800781 32 69.800781 C 32 69.667969 32 69.535156 32 69.398438 C 32.328125 69.335938 32.660156 69.269531 33 69.199219 C 33 69.066406 33 68.9375 33 68.800781 C 33.199219 68.800781 33.394531 68.800781 33.601562 68.800781 C 33.601562 68.667969 33.601562 68.535156 33.601562 68.398438 C 34.128906 68.335938 34.65625 68.269531 35.199219 68.199219 C 35.199219 68.066406 35.199219 67.9375 35.199219 67.800781 C 36.59375 67.535156 37.984375 67.582031 39.398438 67.601562 C 39.398438 67.46875 39.398438 67.335938 39.398438 67.199219 C 39.53125 67.199219 39.664062 67.199219 39.800781 67.199219 C 39.988281 66.597656 40.007812 66.425781 39.800781 65.800781 C 39.371094 65.828125 38.941406 65.859375 38.511719 65.886719 C 38.273438 65.902344 38.035156 65.921875 37.789062 65.9375 C 37.222656 65.933594 37.222656 65.933594 37 66.199219 C 36.601562 66.207031 36.199219 66.207031 35.800781 66.199219 C 35.800781 66.332031 35.800781 66.464844 35.800781 66.601562 C 35.273438 66.601562 34.742188 66.601562 34.199219 66.601562 C 34.199219 66.335938 34.199219 66.070312 34.199219 65.800781 C 34.332031 65.800781 34.464844 65.800781 34.601562 65.800781 C 34.601562 63.753906 34.601562 61.707031 34.601562 59.601562 C 34.203125 59.601562 33.808594 59.601562 33.398438 59.601562 C 33.335938 61.449219 33.269531 63.296875 33.199219 65.199219 C 33.066406 65.199219 32.9375 65.199219 32.800781 65.199219 C 32.734375 65.726562 32.667969 66.257812 32.601562 66.800781 C 32.46875 66.800781 32.335938 66.800781 32.199219 66.800781 C 32.199219 67.0625 32.199219 67.328125 32.199219 67.601562 C 31.921875 67.90625 31.921875 67.90625 31.550781 68.1875 C 30.9375 68.671875 30.484375 69.1875 30 69.800781 C 29.867188 69.800781 29.734375 69.800781 29.601562 69.800781 C 29.601562 69.933594 29.601562 70.0625 29.601562 70.199219 C 29.257812 70.519531 28.894531 70.800781 28.527344 71.09375 C 28.148438 71.402344 28.148438 71.402344 28 72 C 27.867188 72 27.734375 72 27.601562 72 C 27.535156 72.328125 27.46875 72.660156 27.398438 73 C 27.269531 73 27.136719 73 27 73 C 27 73.328125 27 73.660156 27 74 C 26.867188 74 26.734375 74 26.601562 74 C 26.699219 74.296875 26.699219 74.296875 26.800781 74.601562 C 26.667969 74.601562 26.535156 74.601562 26.398438 74.601562 C 26.398438 75.0625 26.398438 75.523438 26.398438 76 C 25.738281 76 25.078125 76 24.398438 76 C 24.398438 75.867188 24.398438 75.734375 24.398438 75.601562 C 23.871094 75.535156 23.34375 75.46875 22.800781 75.398438 C 22.800781 75.269531 22.800781 75.136719 22.800781 75 C 22.601562 75 22.402344 75 22.199219 75 C 22.199219 74.867188 22.199219 74.734375 22.199219 74.601562 C 21.738281 74.535156 21.277344 74.46875 20.800781 74.398438 C 20.785156 74.277344 20.765625 74.152344 20.75 74.023438 C 20.644531 73.570312 20.644531 73.570312 20.238281 73.398438 C 20.09375 73.335938 19.949219 73.269531 19.800781 73.199219 C 19.351562 72.800781 19.351562 72.800781 19 72.398438 C 19 72.269531 19 72.136719 19 72 C 18.734375 71.933594 18.472656 71.867188 18.199219 71.800781 C 18.132812 71.46875 18.066406 71.140625 18 70.800781 C 17.867188 70.800781 17.734375 70.800781 17.601562 70.800781 C 17.601562 70.601562 17.601562 70.402344 17.601562 70.199219 C 17.46875 70.199219 17.335938 70.199219 17.199219 70.199219 C 17.007812 69.550781 16.972656 68.96875 16.972656 68.292969 C 16.972656 68.082031 16.972656 67.871094 16.972656 67.652344 C 16.972656 67.324219 16.972656 67.324219 16.976562 66.988281 C 16.972656 66.65625 16.972656 66.65625 16.972656 66.320312 C 16.972656 66.109375 16.972656 65.898438 16.972656 65.679688 C 16.972656 65.488281 16.972656 65.292969 16.972656 65.097656 C 17 64.601562 17 64.601562 17.199219 64 C 17.332031 64 17.464844 64 17.601562 64 C 17.601562 63.734375 17.601562 63.472656 17.601562 63.199219 C 17.730469 63.199219 17.863281 63.199219 18 63.199219 C 18.066406 62.9375 18.132812 62.671875 18.199219 62.398438 C 18.332031 62.398438 18.464844 62.398438 18.601562 62.398438 C 18.601562 62.269531 18.601562 62.136719 18.601562 62 C 18.730469 62 18.863281 62 19 62 C 19.066406 61.800781 19.132812 61.605469 19.199219 61.398438 C 19.332031 61.398438 19.464844 61.398438 19.601562 61.398438 C 19.664062 61.136719 19.730469 60.871094 19.800781 60.601562 C 20.0625 60.535156 20.328125 60.46875 20.601562 60.398438 C 20.601562 60.269531 20.601562 60.136719 20.601562 60 C 21.179688 59.589844 21.480469 59.398438 22.199219 59.398438 C 22.199219 59.269531 22.199219 59.136719 22.199219 59 C 22.859375 58.933594 23.519531 58.867188 24.199219 58.800781 C 24.199219 58.667969 24.199219 58.535156 24.199219 58.398438 C 24.398438 58.398438 24.597656 58.398438 24.800781 58.398438 C 24.988281 57.796875 25.007812 57.625 24.800781 57 C 24.339844 57 23.875 57 23.398438 57 C 23.398438 57.132812 23.398438 57.265625 23.398438 57.398438 C 23.070312 57.398438 22.738281 57.398438 22.398438 57.398438 C 22.398438 57.53125 22.398438 57.664062 22.398438 57.800781 C 21.851562 57.984375 21.523438 58.027344 20.960938 58.027344 C 20.796875 58.027344 20.632812 58.027344 20.464844 58.027344 C 20.296875 58.027344 20.125 58.027344 19.949219 58.023438 C 19.78125 58.027344 19.617188 58.027344 19.445312 58.027344 C 18.476562 58.027344 17.554688 57.960938 16.601562 57.800781 C 16.601562 57.667969 16.601562 57.535156 16.601562 57.398438 C 16.402344 57.398438 16.203125 57.398438 16 57.398438 C 16 57.269531 16 57.136719 16 57 C 15.855469 57.011719 15.710938 57.023438 15.5625 57.039062 C 14.886719 56.992188 14.558594 56.765625 14 56.398438 C 13.800781 56.335938 13.605469 56.269531 13.398438 56.199219 C 13.398438 56.066406 13.398438 55.9375 13.398438 55.800781 C 13.269531 55.800781 13.136719 55.800781 13 55.800781 C 12.734375 55.523438 12.734375 55.523438 12.4375 55.148438 C 11.941406 54.546875 11.414062 54.085938 10.800781 53.601562 C 10.800781 53.46875 10.800781 53.335938 10.800781 53.199219 C 10.667969 53.199219 10.535156 53.199219 10.398438 53.199219 C 10.398438 53.003906 10.398438 52.804688 10.398438 52.601562 C 10.269531 52.601562 10.136719 52.601562 10 52.601562 C 9.972656 52.480469 9.941406 52.359375 9.914062 52.238281 C 9.824219 51.886719 9.714844 51.542969 9.601562 51.199219 C 9.550781 50.316406 9.5625 49.433594 9.5625 48.550781 C 9.558594 48.308594 9.558594 48.0625 9.554688 47.8125 C 9.554688 46.601562 9.574219 45.542969 10 44.398438 C 10.132812 44.398438 10.265625 44.398438 10.398438 44.398438 C 10.398438 44.203125 10.398438 44.003906 10.398438 43.800781 C 10.53125 43.800781 10.664062 43.800781 10.800781 43.800781 C 10.8125 43.6875 10.824219 43.578125 10.835938 43.460938 C 11.070312 42.804688 11.492188 42.472656 12 42 C 12.140625 41.847656 12.28125 41.695312 12.425781 41.539062 C 12.800781 41.199219 12.800781 41.199219 13.398438 41.199219 C 13.398438 41.066406 13.398438 40.9375 13.398438 40.800781 C 13.730469 40.734375 14.058594 40.667969 14.398438 40.601562 C 14.398438 40.46875 14.398438 40.335938 14.398438 40.199219 C 14.597656 40.199219 14.796875 40.199219 15 40.199219 C 15 40.066406 15 39.9375 15 39.800781 C 15.527344 39.734375 16.054688 39.667969 16.601562 39.601562 C 16.601562 39.46875 16.601562 39.335938 16.601562 39.199219 C 16.929688 39.199219 17.261719 39.199219 17.601562 39.199219 C 17.601562 39.066406 17.601562 38.9375 17.601562 38.800781 C 19.777344 38.734375 21.957031 38.667969 24.199219 38.601562 C 24.199219 38.335938 24.199219 38.070312 24.199219 37.800781 C 24.066406 37.734375 23.9375 37.667969 23.800781 37.601562 C 23.800781 37.46875 23.800781 37.335938 23.800781 37.199219 C 21.953125 37.199219 20.105469 37.199219 18.199219 37.199219 C 18.132812 36.871094 18.066406 36.539062 18 36.199219 C 17.734375 36.132812 17.472656 36.066406 17.199219 36 C 17.101562 35.207031 17.101562 35.207031 17 34.398438 C 16.867188 34.398438 16.734375 34.398438 16.601562 34.398438 C 16.601562 32.949219 16.601562 31.496094 16.601562 30 C 16.730469 30 16.863281 30 17 30 C 17.066406 29.605469 17.132812 29.207031 17.199219 28.800781 C 17.332031 28.800781 17.464844 28.800781 17.601562 28.800781 C 17.601562 28.601562 17.601562 28.402344 17.601562 28.199219 C 17.730469 28.199219 17.863281 28.199219 18 28.199219 C 18.066406 27.871094 18.132812 27.539062 18.199219 27.199219 C 18.332031 27.199219 18.464844 27.199219 18.601562 27.199219 C 18.601562 27.066406 18.601562 26.9375 18.601562 26.800781 C 18.875 26.476562 18.875 26.476562 19.199219 26.199219 C 19.332031 26.199219 19.464844 26.199219 19.601562 26.199219 C 19.601562 26.066406 19.601562 25.9375 19.601562 25.800781 C 20.09375 25.699219 20.09375 25.699219 20.601562 25.601562 C 20.601562 25.46875 20.601562 25.335938 20.601562 25.199219 C 20.796875 25.199219 20.996094 25.199219 21.199219 25.199219 C 21.199219 25.066406 21.199219 24.9375 21.199219 24.800781 C 21.660156 24.734375 22.125 24.667969 22.601562 24.601562 C 22.601562 24.46875 22.601562 24.335938 22.601562 24.199219 C 23.492188 24.101562 23.492188 24.101562 24.398438 24 C 24.398438 23.867188 24.398438 23.734375 24.398438 23.601562 C 26.445312 23.601562 28.492188 23.601562 30.601562 23.601562 C 30.601562 23.730469 30.601562 23.863281 30.601562 24 C 31.128906 24.066406 31.65625 24.132812 32.199219 24.199219 C 32.199219 24.332031 32.199219 24.464844 32.199219 24.601562 C 32.464844 24.601562 32.726562 24.601562 33 24.601562 C 33 24.136719 33 23.675781 33 23.199219 C 32.605469 23.101562 32.605469 23.101562 32.199219 23 C 32.199219 22.867188 32.199219 22.734375 32.199219 22.601562 C 31.144531 22.46875 30.089844 22.335938 29 22.199219 C 29 21.605469 29 21.011719 29 20.398438 C 29.132812 20.398438 29.265625 20.398438 29.398438 20.398438 C 29.464844 19.804688 29.53125 19.210938 29.601562 18.601562 C 29.730469 18.601562 29.863281 18.601562 30 18.601562 C 30.066406 18.203125 30.132812 17.808594 30.199219 17.398438 C 30.332031 17.398438 30.464844 17.398438 30.601562 17.398438 C 30.601562 17.269531 30.601562 17.136719 30.601562 17 C 30.886719 16.71875 30.886719 16.71875 31.261719 16.414062 C 31.636719 16.105469 31.988281 15.8125 32.320312 15.460938 C 32.601562 15.199219 32.601562 15.199219 33 15.199219 C 33.066406 14.9375 33.132812 14.671875 33.199219 14.398438 C 33.894531 14.300781 33.894531 14.300781 34.601562 14.199219 C 34.601562 14.066406 34.601562 13.9375 34.601562 13.800781 C 34.796875 13.800781 34.996094 13.800781 35.199219 13.800781 C 35.199219 13.667969 35.199219 13.535156 35.199219 13.398438 C 36.835938 12.980469 38.417969 12.941406 40.101562 12.949219 Z M 40.101562 12.949219 "/>
<path style=" stroke:none;fill-rule:nonzero;fill:rgb(99.607843%,99.607843%,99.607843%);fill-opacity:1;" d="M 61 57.398438 C 61.644531 57.371094 62.292969 57.351562 62.9375 57.335938 C 63.121094 57.328125 63.300781 57.320312 63.492188 57.3125 C 64.855469 57.289062 64.855469 57.289062 65.597656 57.871094 C 65.796875 58.132812 65.796875 58.132812 66 58.398438 C 66.503906 58.929688 66.933594 59.359375 67.5625 59.738281 C 67.707031 59.824219 67.851562 59.910156 68 60 C 68 60.132812 68 60.265625 68 60.398438 C 68.199219 60.464844 68.394531 60.53125 68.601562 60.601562 C 68.601562 60.730469 68.601562 60.863281 68.601562 61 C 68.730469 61 68.863281 61 69 61 C 69 61.132812 69 61.265625 69 61.398438 C 69.199219 61.464844 69.394531 61.53125 69.601562 61.601562 C 69.601562 61.730469 69.601562 61.863281 69.601562 62 C 69.730469 62 69.863281 62 70 62 C 70 62.132812 70 62.265625 70 62.398438 C 70.199219 62.464844 70.394531 62.53125 70.601562 62.601562 C 70.601562 62.730469 70.601562 62.863281 70.601562 63 C 71.722656 63 72.84375 63 74 63 C 74 62.671875 74 62.339844 74 62 C 74.097656 61.703125 74.097656 61.703125 74.199219 61.398438 C 74.332031 61.398438 74.464844 61.398438 74.601562 61.398438 C 74.601562 61.269531 74.601562 61.136719 74.601562 61 C 74.730469 61 74.863281 61 75 61 C 75 60.867188 75 60.734375 75 60.601562 C 75.871094 59.800781 75.871094 59.800781 76.601562 59.800781 C 76.601562 59.667969 76.601562 59.535156 76.601562 59.398438 C 76.796875 59.398438 76.996094 59.398438 77.199219 59.398438 C 77.199219 59.269531 77.199219 59.136719 77.199219 59 C 78.585938 59 79.972656 59 81.398438 59 C 81.398438 59.132812 81.398438 59.265625 81.398438 59.398438 C 81.597656 59.398438 81.796875 59.398438 82 59.398438 C 82 59.53125 82 59.664062 82 59.800781 C 82.117188 59.847656 82.230469 59.898438 82.351562 59.949219 C 82.867188 60.238281 83.210938 60.558594 83.601562 61 C 83.601562 61.132812 83.601562 61.265625 83.601562 61.398438 C 83.730469 61.398438 83.863281 61.398438 84 61.398438 C 84 61.597656 84 61.796875 84 62 C 84.132812 62 84.265625 62 84.398438 62 C 84.582031 62.542969 84.625 62.867188 84.625 63.425781 C 84.625 63.582031 84.628906 63.742188 84.628906 63.902344 C 84.625 64.066406 84.625 64.230469 84.625 64.398438 C 84.625 64.5625 84.625 64.726562 84.628906 64.898438 C 84.628906 65.054688 84.625 65.210938 84.625 65.375 C 84.625 65.519531 84.625 65.664062 84.625 65.8125 C 84.601562 66.199219 84.601562 66.199219 84.398438 66.800781 C 84.269531 66.800781 84.136719 66.800781 84 66.800781 C 84 67.0625 84 67.328125 84 67.601562 C 83.714844 67.917969 83.714844 67.917969 83.335938 68.210938 C 82.960938 68.507812 82.613281 68.785156 82.292969 69.136719 C 82 69.398438 82 69.398438 81.398438 69.398438 C 81.398438 69.53125 81.398438 69.664062 81.398438 69.800781 C 80.015625 69.800781 78.628906 69.800781 77.199219 69.800781 C 77.199219 69.667969 77.199219 69.535156 77.199219 69.398438 C 76.804688 69.335938 76.40625 69.269531 76 69.199219 C 76 69.066406 76 68.9375 76 68.800781 C 75.867188 68.800781 75.734375 68.800781 75.601562 68.800781 C 75.273438 68.523438 75.273438 68.523438 75 68.199219 C 75 68.066406 75 67.9375 75 67.800781 C 74.871094 67.757812 74.746094 67.71875 74.613281 67.675781 C 74.199219 67.398438 74.199219 67.398438 74.074219 66.78125 C 74.050781 66.589844 74.023438 66.398438 74 66.199219 C 73.863281 66.207031 73.722656 66.210938 73.582031 66.21875 C 72.949219 66.242188 72.320312 66.257812 71.6875 66.273438 C 71.46875 66.285156 71.253906 66.296875 71.03125 66.304688 C 69.949219 66.324219 69.199219 66.328125 68.34375 65.621094 C 68.019531 65.300781 68.019531 65.300781 67.800781 65 C 67.800781 64.867188 67.800781 64.734375 67.800781 64.601562 C 67.667969 64.601562 67.535156 64.601562 67.398438 64.601562 C 67.132812 64.320312 67.132812 64.320312 66.835938 63.949219 C 66.339844 63.347656 65.8125 62.886719 65.199219 62.398438 C 65.199219 62.269531 65.199219 62.136719 65.199219 62 C 65.066406 62 64.9375 62 64.800781 62 C 64.683594 61.804688 64.570312 61.613281 64.449219 61.414062 C 64.03125 60.867188 63.808594 60.800781 63.113281 60.675781 C 62.410156 60.628906 61.703125 60.613281 61 60.601562 C 61 59.542969 61 58.488281 61 57.398438 Z M 77.800781 62.601562 C 77.800781 62.730469 77.800781 62.863281 77.800781 63 C 77.601562 63.097656 77.601562 63.097656 77.398438 63.199219 C 77.464844 63.859375 77.53125 64.519531 77.601562 65.199219 C 77.46875 65.199219 77.335938 65.199219 77.199219 65.199219 C 77.265625 65.398438 77.332031 65.597656 77.398438 65.800781 C 77.53125 65.800781 77.664062 65.800781 77.800781 65.800781 C 77.800781 65.933594 77.800781 66.0625 77.800781 66.199219 C 77.933594 66.199219 78.0625 66.199219 78.199219 66.199219 C 78.199219 66.332031 78.199219 66.464844 78.199219 66.601562 C 78.925781 66.601562 79.652344 66.601562 80.398438 66.601562 C 80.53125 66.335938 80.664062 66.070312 80.800781 65.800781 C 80.933594 65.800781 81.0625 65.800781 81.199219 65.800781 C 81.378906 65.265625 81.425781 64.949219 81.425781 64.398438 C 81.425781 64.265625 81.425781 64.128906 81.425781 63.988281 C 81.414062 63.554688 81.414062 63.554688 81.199219 63 C 81.066406 63 80.9375 63 80.800781 63 C 80.734375 62.800781 80.667969 62.605469 80.601562 62.398438 C 80.207031 62.394531 79.816406 62.390625 79.425781 62.386719 C 79.207031 62.386719 78.988281 62.382812 78.765625 62.378906 C 78.210938 62.359375 78.210938 62.359375 77.800781 62.601562 Z M 77.800781 62.601562 "/>
<path style=" stroke:none;fill-rule:nonzero;fill:rgb(99.607843%,99.607843%,99.607843%);fill-opacity:1;" d="M 77.601562 30.398438 C 78.722656 30.398438 79.84375 30.398438 81 30.398438 C 81 30.53125 81 30.664062 81 30.800781 C 81.308594 30.804688 81.308594 30.804688 81.625 30.8125 C 82.554688 31.039062 82.792969 31.339844 83.347656 32.082031 C 83.585938 32.429688 83.585938 32.429688 84 32.601562 C 84 32.863281 84 33.128906 84 33.398438 C 84.132812 33.398438 84.265625 33.398438 84.398438 33.398438 C 84.585938 33.953125 84.625 34.289062 84.625 34.863281 C 84.625 35.027344 84.628906 35.195312 84.628906 35.363281 C 84.625 35.535156 84.625 35.710938 84.625 35.886719 C 84.625 36.058594 84.625 36.230469 84.628906 36.40625 C 84.628906 36.574219 84.625 36.742188 84.625 36.910156 C 84.625 37.0625 84.625 37.214844 84.625 37.371094 C 84.601562 37.804688 84.519531 38.183594 84.398438 38.601562 C 84.269531 38.601562 84.136719 38.601562 84 38.601562 C 84 38.796875 84 38.996094 84 39.199219 C 83.867188 39.199219 83.734375 39.199219 83.601562 39.199219 C 83.535156 39.398438 83.46875 39.597656 83.398438 39.800781 C 83.269531 39.800781 83.136719 39.800781 83 39.800781 C 83 39.933594 83 40.0625 83 40.199219 C 82.671875 40.265625 82.339844 40.332031 82 40.398438 C 81.933594 40.664062 81.867188 40.929688 81.800781 41.199219 C 80.925781 41.417969 80.070312 41.429688 79.175781 41.425781 C 78.960938 41.425781 78.960938 41.425781 78.742188 41.425781 C 78.109375 41.425781 77.605469 41.402344 77 41.199219 C 77 41.066406 77 40.9375 77 40.800781 C 76.734375 40.800781 76.472656 40.800781 76.199219 40.800781 C 75.773438 40.3125 75.773438 40.3125 75.398438 39.800781 C 75.269531 39.734375 75.136719 39.667969 75 39.601562 C 75 39.46875 75 39.335938 75 39.199219 C 74.867188 39.199219 74.734375 39.199219 74.601562 39.199219 C 74.601562 39.066406 74.601562 38.9375 74.601562 38.800781 C 74.46875 38.800781 74.335938 38.800781 74.199219 38.800781 C 74.101562 38.207031 74.101562 38.207031 74 37.601562 C 72.019531 37.699219 72.019531 37.699219 70 37.800781 C 70 37.933594 70 38.0625 70 38.199219 C 69.867188 38.199219 69.734375 38.199219 69.601562 38.199219 C 69.535156 38.398438 69.46875 38.597656 69.398438 38.800781 C 69.269531 38.800781 69.136719 38.800781 69 38.800781 C 69 38.933594 69 39.0625 69 39.199219 C 68.867188 39.199219 68.734375 39.199219 68.601562 39.199219 C 68.535156 39.398438 68.46875 39.597656 68.398438 39.800781 C 68.269531 39.800781 68.136719 39.800781 68 39.800781 C 68 39.933594 68 40.0625 68 40.199219 C 67.726562 40.523438 67.726562 40.523438 67.398438 40.800781 C 67.269531 40.800781 67.136719 40.800781 67 40.800781 C 66.933594 40.996094 66.867188 41.195312 66.800781 41.398438 C 66.667969 41.398438 66.535156 41.398438 66.398438 41.398438 C 66.398438 41.53125 66.398438 41.664062 66.398438 41.800781 C 66.269531 41.800781 66.136719 41.800781 66 41.800781 C 65.933594 41.996094 65.867188 42.195312 65.800781 42.398438 C 65.667969 42.398438 65.535156 42.398438 65.398438 42.398438 C 65.398438 42.53125 65.398438 42.664062 65.398438 42.800781 C 65.269531 42.800781 65.136719 42.800781 65 42.800781 C 65 42.933594 65 43.0625 65 43.199219 C 64.867188 43.199219 64.734375 43.199219 64.601562 43.199219 C 64.601562 43.066406 64.601562 42.9375 64.601562 42.800781 C 63.410156 42.800781 62.222656 42.800781 61 42.800781 C 61 41.808594 61 40.820312 61 39.800781 C 61.402344 39.796875 61.808594 39.792969 62.226562 39.789062 C 63.195312 39.730469 63.195312 39.730469 64.027344 39.273438 C 64.339844 38.898438 64.339844 38.898438 64.589844 38.5 C 64.660156 38.402344 64.730469 38.300781 64.800781 38.199219 C 64.933594 38.199219 65.0625 38.199219 65.199219 38.199219 C 65.199219 38.066406 65.199219 37.9375 65.199219 37.800781 C 65.476562 37.535156 65.476562 37.535156 65.851562 37.238281 C 66.453125 36.742188 66.914062 36.210938 67.398438 35.601562 C 67.53125 35.601562 67.664062 35.601562 67.800781 35.601562 C 67.800781 35.46875 67.800781 35.335938 67.800781 35.199219 C 68.25 34.664062 68.617188 34.421875 69.3125 34.335938 C 69.933594 34.320312 70.542969 34.332031 71.164062 34.351562 C 71.378906 34.355469 71.59375 34.355469 71.8125 34.359375 C 72.34375 34.371094 72.871094 34.382812 73.398438 34.398438 C 73.464844 34.136719 73.53125 33.871094 73.601562 33.601562 C 73.796875 33.601562 73.996094 33.601562 74.199219 33.601562 C 74.199219 33.402344 74.199219 33.203125 74.199219 33 C 74.332031 33 74.464844 33 74.601562 33 C 74.601562 32.800781 74.601562 32.605469 74.601562 32.398438 C 74.730469 32.398438 74.863281 32.398438 75 32.398438 C 75 32.269531 75 32.136719 75 32 C 75.261719 31.675781 75.261719 31.675781 75.601562 31.398438 C 75.796875 31.398438 75.996094 31.398438 76.199219 31.398438 C 76.199219 31.269531 76.199219 31.136719 76.199219 31 C 76.894531 30.902344 76.894531 30.902344 77.601562 30.800781 C 77.601562 30.667969 77.601562 30.535156 77.601562 30.398438 Z M 78.199219 33.601562 C 78.199219 33.730469 78.199219 33.863281 78.199219 34 C 78.066406 34 77.9375 34 77.800781 34 C 77.800781 34.132812 77.800781 34.265625 77.800781 34.398438 C 77.601562 34.464844 77.402344 34.53125 77.199219 34.601562 C 77.199219 34.796875 77.199219 34.996094 77.199219 35.199219 C 77.066406 35.199219 76.9375 35.199219 76.800781 35.199219 C 76.800781 35.660156 76.800781 36.125 76.800781 36.601562 C 76.933594 36.601562 77.0625 36.601562 77.199219 36.601562 C 77.265625 36.929688 77.332031 37.261719 77.398438 37.601562 C 77.730469 37.664062 78.058594 37.730469 78.398438 37.800781 C 78.398438 37.933594 78.398438 38.0625 78.398438 38.199219 C 78.992188 38.199219 79.589844 38.199219 80.199219 38.199219 C 80.199219 38.066406 80.199219 37.9375 80.199219 37.800781 C 80.398438 37.734375 80.597656 37.667969 80.800781 37.601562 C 80.800781 37.46875 80.800781 37.335938 80.800781 37.199219 C 80.996094 37.132812 81.195312 37.066406 81.398438 37 C 81.511719 35.628906 81.511719 35.628906 81.023438 34.375 C 80.644531 33.957031 80.644531 33.957031 80.199219 34 C 80.199219 33.867188 80.199219 33.734375 80.199219 33.601562 C 79.539062 33.601562 78.878906 33.601562 78.199219 33.601562 Z M 78.199219 33.601562 "/>
<path style=" stroke:none;fill-rule:nonzero;fill:rgb(99.607843%,99.607843%,99.607843%);fill-opacity:1;" d="M 58.800781 66.800781 C 59.460938 66.800781 60.121094 66.800781 60.800781 66.800781 C 60.800781 66.867188 60.800781 66.933594 60.800781 67 C 61.019531 67.019531 61.238281 67.042969 61.460938 67.0625 C 62.199219 67.199219 62.199219 67.199219 62.585938 67.488281 C 62.800781 67.800781 62.800781 67.800781 62.800781 68.199219 C 62.996094 68.265625 63.195312 68.332031 63.398438 68.398438 C 63.398438 68.53125 63.398438 68.664062 63.398438 68.800781 C 63.53125 68.800781 63.664062 68.800781 63.800781 68.800781 C 63.800781 68.933594 63.800781 69.0625 63.800781 69.199219 C 63.996094 69.265625 64.195312 69.332031 64.398438 69.398438 C 64.398438 69.53125 64.398438 69.664062 64.398438 69.800781 C 64.53125 69.800781 64.664062 69.800781 64.800781 69.800781 C 65.125 70.074219 65.125 70.074219 65.398438 70.398438 C 65.398438 70.53125 65.398438 70.664062 65.398438 70.800781 C 65.597656 70.867188 65.796875 70.933594 66 71 C 66 71.132812 66 71.265625 66 71.398438 C 66.132812 71.398438 66.265625 71.398438 66.398438 71.398438 C 66.398438 71.53125 66.398438 71.664062 66.398438 71.800781 C 66.597656 71.867188 66.796875 71.933594 67 72 C 67 72.132812 67 72.265625 67 72.398438 C 67.132812 72.398438 67.265625 72.398438 67.398438 72.398438 C 67.398438 72.269531 67.398438 72.136719 67.398438 72 C 68.230469 71.769531 69.03125 71.769531 69.886719 71.773438 C 70.039062 71.773438 70.1875 71.773438 70.34375 71.773438 C 71.121094 71.773438 71.839844 71.808594 72.601562 72 C 72.601562 72.132812 72.601562 72.265625 72.601562 72.398438 C 72.796875 72.398438 72.996094 72.398438 73.199219 72.398438 C 73.199219 72.53125 73.199219 72.664062 73.199219 72.800781 C 73.320312 72.859375 73.4375 72.914062 73.5625 72.976562 C 74 73.199219 74 73.199219 74.601562 73.601562 C 74.601562 73.863281 74.601562 74.128906 74.601562 74.398438 C 74.730469 74.398438 74.863281 74.398438 75 74.398438 C 75.203125 75.003906 75.226562 75.414062 75.226562 76.042969 C 75.226562 76.246094 75.226562 76.449219 75.226562 76.660156 C 75.226562 76.871094 75.226562 77.082031 75.226562 77.300781 C 75.226562 77.511719 75.226562 77.722656 75.226562 77.941406 C 75.226562 78.144531 75.226562 78.347656 75.226562 78.554688 C 75.226562 78.742188 75.226562 78.929688 75.226562 79.117188 C 75.199219 79.601562 75.199219 79.601562 75 80.199219 C 74.867188 80.199219 74.734375 80.199219 74.601562 80.199219 C 74.601562 80.332031 74.601562 80.464844 74.601562 80.601562 C 74.300781 80.886719 74.300781 80.886719 73.914062 81.199219 C 73.371094 81.628906 73.371094 81.628906 73 82.199219 C 71.566406 82.976562 69.980469 82.859375 68.398438 82.800781 C 68.398438 82.667969 68.398438 82.535156 68.398438 82.398438 C 68.003906 82.335938 67.609375 82.269531 67.199219 82.199219 C 67.199219 82.066406 67.199219 81.9375 67.199219 81.800781 C 66.871094 81.734375 66.539062 81.667969 66.199219 81.601562 C 66.199219 81.46875 66.199219 81.335938 66.199219 81.199219 C 66.066406 81.199219 65.9375 81.199219 65.800781 81.199219 C 65.476562 80.949219 65.476562 80.949219 65.199219 80.601562 C 65.199219 80.335938 65.199219 80.070312 65.199219 79.800781 C 65.066406 79.800781 64.9375 79.800781 64.800781 79.800781 C 64.800781 79.601562 64.800781 79.402344 64.800781 79.199219 C 64.667969 79.199219 64.535156 79.199219 64.398438 79.199219 C 64.398438 77.945312 64.398438 76.691406 64.398438 75.398438 C 64.53125 75.398438 64.664062 75.398438 64.800781 75.398438 C 64.6875 74.699219 64.476562 74.425781 63.925781 73.988281 C 62.976562 73.226562 62.976562 73.226562 62.601562 72.800781 C 62.601562 72.667969 62.601562 72.535156 62.601562 72.398438 C 62.46875 72.398438 62.335938 72.398438 62.199219 72.398438 C 61.914062 72.101562 61.914062 72.101562 61.601562 71.710938 C 61.171875 71.167969 61.171875 71.167969 60.601562 70.800781 C 60.601562 70.667969 60.601562 70.535156 60.601562 70.398438 C 58.355469 70.398438 56.113281 70.398438 53.800781 70.398438 C 53.800781 69.34375 53.800781 68.289062 53.800781 67.199219 C 55.449219 67.199219 57.101562 67.199219 58.800781 67.199219 C 58.800781 67.066406 58.800781 66.9375 58.800781 66.800781 Z M 69 75 C 69 75.132812 69 75.265625 69 75.398438 C 68.800781 75.464844 68.605469 75.53125 68.398438 75.601562 C 68.398438 75.730469 68.398438 75.863281 68.398438 76 C 68.203125 76.066406 68.003906 76.132812 67.800781 76.199219 C 67.792969 76.523438 67.789062 76.851562 67.789062 77.175781 C 67.785156 77.355469 67.78125 77.535156 67.78125 77.722656 C 67.765625 78.203125 67.765625 78.203125 68 78.601562 C 68.132812 78.601562 68.265625 78.601562 68.398438 78.601562 C 68.464844 78.796875 68.53125 78.996094 68.601562 79.199219 C 68.863281 79.199219 69.128906 79.199219 69.398438 79.199219 C 69.398438 79.332031 69.398438 79.464844 69.398438 79.601562 C 69.863281 79.601562 70.324219 79.601562 70.800781 79.601562 C 70.800781 79.46875 70.800781 79.335938 70.800781 79.199219 C 70.921875 79.175781 71.046875 79.152344 71.175781 79.125 C 71.636719 79.027344 71.636719 79.027344 72 78.601562 C 72 78.402344 72 78.203125 72 78 C 72.132812 78 72.265625 78 72.398438 78 C 72.398438 77.539062 72.398438 77.074219 72.398438 76.601562 C 72.269531 76.601562 72.136719 76.601562 72 76.601562 C 71.933594 76.269531 71.867188 75.941406 71.800781 75.601562 C 71.535156 75.535156 71.273438 75.46875 71 75.398438 C 71 75.269531 71 75.136719 71 75 C 70.339844 75 69.679688 75 69 75 Z M 69 75 "/>
<path style=" stroke:none;fill-rule:nonzero;fill:rgb(99.607843%,99.607843%,99.607843%);fill-opacity:1;" d="M 68.757812 17.773438 C 69.035156 17.773438 69.035156 17.773438 69.316406 17.773438 C 69.605469 17.773438 69.605469 17.773438 69.898438 17.773438 C 70.1875 17.773438 70.1875 17.773438 70.484375 17.773438 C 70.667969 17.773438 70.851562 17.773438 71.042969 17.773438 C 71.296875 17.773438 71.296875 17.773438 71.554688 17.773438 C 72 17.800781 72 17.800781 72.601562 18 C 72.601562 18.132812 72.601562 18.265625 72.601562 18.398438 C 72.746094 18.414062 72.890625 18.425781 73.039062 18.4375 C 73.785156 18.652344 74.105469 19.007812 74.601562 19.601562 C 74.738281 20.050781 74.738281 20.050781 74.800781 20.398438 C 74.996094 20.5 74.996094 20.5 75.199219 20.601562 C 75.199219 22.25 75.199219 23.898438 75.199219 25.601562 C 75.003906 25.699219 75.003906 25.699219 74.800781 25.800781 C 74.78125 25.917969 74.757812 26.039062 74.738281 26.164062 C 74.535156 26.800781 74.140625 27.03125 73.601562 27.398438 C 73.46875 27.398438 73.335938 27.398438 73.199219 27.398438 C 73.199219 27.53125 73.199219 27.664062 73.199219 27.800781 C 73.003906 27.800781 72.804688 27.800781 72.601562 27.800781 C 72.601562 27.933594 72.601562 28.0625 72.601562 28.199219 C 72.019531 28.394531 71.640625 28.425781 71.035156 28.425781 C 70.851562 28.425781 70.664062 28.425781 70.472656 28.425781 C 70.28125 28.425781 70.085938 28.425781 69.886719 28.425781 C 69.597656 28.425781 69.597656 28.425781 69.296875 28.425781 C 69.019531 28.425781 69.019531 28.425781 68.738281 28.425781 C 68.566406 28.425781 68.398438 28.425781 68.222656 28.425781 C 67.800781 28.398438 67.800781 28.398438 67.398438 28.199219 C 67.398438 28.066406 67.398438 27.9375 67.398438 27.800781 C 67.269531 27.800781 67.136719 27.800781 67 27.800781 C 66.933594 27.996094 66.867188 28.195312 66.800781 28.398438 C 66.667969 28.398438 66.535156 28.398438 66.398438 28.398438 C 66.398438 28.53125 66.398438 28.664062 66.398438 28.800781 C 66.269531 28.800781 66.136719 28.800781 66 28.800781 C 65.933594 28.996094 65.867188 29.195312 65.800781 29.398438 C 65.667969 29.398438 65.535156 29.398438 65.398438 29.398438 C 65.398438 29.53125 65.398438 29.664062 65.398438 29.800781 C 65.125 30.125 65.125 30.125 64.800781 30.398438 C 64.667969 30.398438 64.535156 30.398438 64.398438 30.398438 C 64.335938 30.597656 64.269531 30.796875 64.199219 31 C 64.066406 31 63.9375 31 63.800781 31 C 63.800781 31.132812 63.800781 31.265625 63.800781 31.398438 C 63.667969 31.398438 63.535156 31.398438 63.398438 31.398438 C 63.300781 31.695312 63.300781 31.695312 63.199219 32 C 63.066406 32 62.9375 32 62.800781 32 C 62.800781 32.132812 62.800781 32.265625 62.800781 32.398438 C 62.578125 32.722656 62.578125 32.722656 62.199219 33 C 61.636719 33.066406 61.636719 33.066406 60.960938 33.058594 C 60.71875 33.058594 60.476562 33.054688 60.226562 33.054688 C 59.847656 33.046875 59.847656 33.046875 59.460938 33.039062 C 59.082031 33.035156 59.082031 33.035156 58.691406 33.03125 C 58.058594 33.023438 57.429688 33.011719 56.800781 33 C 56.800781 33.132812 56.800781 33.265625 56.800781 33.398438 C 56.339844 33.398438 55.875 33.398438 55.398438 33.398438 C 55.398438 33.335938 55.398438 33.269531 55.398438 33.199219 C 54.609375 33.101562 54.609375 33.101562 53.800781 33 C 53.800781 31.945312 53.800781 30.886719 53.800781 29.800781 C 54.195312 29.800781 54.59375 29.800781 55 29.800781 C 55 29.667969 55 29.535156 55 29.398438 C 56.714844 29.144531 56.714844 29.144531 57.398438 29.398438 C 57.398438 29.53125 57.398438 29.664062 57.398438 29.800781 C 58.457031 29.800781 59.511719 29.800781 60.601562 29.800781 C 60.601562 29.667969 60.601562 29.535156 60.601562 29.398438 C 60.898438 29.113281 60.898438 29.113281 61.289062 28.800781 C 61.832031 28.371094 61.832031 28.371094 62.199219 27.800781 C 62.332031 27.800781 62.464844 27.800781 62.601562 27.800781 C 62.601562 27.667969 62.601562 27.535156 62.601562 27.398438 C 62.886719 27.121094 62.886719 27.121094 63.261719 26.8125 C 64.320312 25.996094 64.320312 25.996094 64.800781 24.800781 C 64.667969 24.800781 64.535156 24.800781 64.398438 24.800781 C 64.390625 24.25 64.382812 23.699219 64.375 23.148438 C 64.371094 22.996094 64.367188 22.839844 64.363281 22.679688 C 64.351562 21.253906 64.351562 21.253906 64.800781 20.601562 C 64.933594 20.601562 65.0625 20.601562 65.199219 20.601562 C 65.199219 20.402344 65.199219 20.203125 65.199219 20 C 65.332031 20 65.464844 20 65.601562 20 C 65.664062 19.800781 65.730469 19.605469 65.800781 19.398438 C 65.933594 19.398438 66.0625 19.398438 66.199219 19.398438 C 66.199219 19.269531 66.199219 19.136719 66.199219 19 C 66.332031 19 66.464844 19 66.601562 19 C 66.664062 18.800781 66.730469 18.605469 66.800781 18.398438 C 66.933594 18.398438 67.0625 18.398438 67.199219 18.398438 C 67.199219 18.269531 67.199219 18.136719 67.199219 18 C 67.78125 17.808594 68.152344 17.773438 68.757812 17.773438 Z M 68.601562 21 C 68.535156 21.199219 68.46875 21.394531 68.398438 21.601562 C 68.269531 21.601562 68.136719 21.601562 68 21.601562 C 67.640625 22.675781 67.628906 23.765625 68.050781 24.824219 C 68.953125 25.441406 69.941406 25.273438 71 25.199219 C 71 25.066406 71 24.9375 71 24.800781 C 71.121094 24.78125 71.238281 24.757812 71.363281 24.738281 C 71.878906 24.574219 72.066406 24.421875 72.398438 24 C 72.496094 23.566406 72.496094 23.566406 72.476562 23.101562 C 72.476562 22.945312 72.476562 22.789062 72.480469 22.632812 C 72.382812 22.101562 72.222656 21.921875 71.800781 21.601562 C 71.667969 21.601562 71.535156 21.601562 71.398438 21.601562 C 71.398438 21.46875 71.398438 21.335938 71.398438 21.199219 C 70.847656 20.921875 70.390625 20.980469 69.773438 20.988281 C 69.554688 20.988281 69.335938 20.992188 69.109375 20.992188 C 68.859375 20.996094 68.859375 20.996094 68.601562 21 Z M 68.601562 21 "/>
<path style=" stroke:none;fill-rule:nonzero;fill:rgb(99.607843%,99.607843%,99.607843%);fill-opacity:1;" d="M 84.085938 44.773438 C 84.347656 44.773438 84.347656 44.773438 84.617188 44.773438 C 84.800781 44.773438 84.984375 44.773438 85.175781 44.773438 C 85.449219 44.773438 85.449219 44.773438 85.726562 44.773438 C 85.992188 44.773438 85.992188 44.773438 86.261719 44.773438 C 86.421875 44.773438 86.582031 44.773438 86.75 44.773438 C 87.191406 44.800781 87.574219 44.878906 88 45 C 88 45.132812 88 45.265625 88 45.398438 C 88.199219 45.398438 88.394531 45.398438 88.601562 45.398438 C 88.9375 45.675781 88.9375 45.675781 89.199219 46 C 89.199219 46.132812 89.199219 46.265625 89.199219 46.398438 C 89.464844 46.53125 89.726562 46.664062 90 46.800781 C 89.933594 46.996094 89.867188 47.195312 89.800781 47.398438 C 89.933594 47.398438 90.0625 47.398438 90.199219 47.398438 C 90.402344 48.011719 90.421875 48.425781 90.417969 49.066406 C 90.417969 49.375 90.417969 49.375 90.417969 49.6875 C 90.414062 50.007812 90.414062 50.007812 90.414062 50.335938 C 90.410156 50.554688 90.410156 50.769531 90.410156 50.992188 C 90.40625 51.53125 90.402344 52.066406 90.398438 52.601562 C 90.101562 52.699219 90.101562 52.699219 89.800781 52.800781 C 89.867188 52.996094 89.933594 53.195312 90 53.398438 C 89.605469 53.597656 89.605469 53.597656 89.199219 53.800781 C 89.199219 53.933594 89.199219 54.0625 89.199219 54.199219 C 88.925781 54.523438 88.925781 54.523438 88.601562 54.800781 C 88.46875 54.800781 88.335938 54.800781 88.199219 54.800781 C 88.199219 54.933594 88.199219 55.0625 88.199219 55.199219 C 87.203125 55.460938 86.210938 55.429688 85.1875 55.425781 C 84.917969 55.425781 84.917969 55.425781 84.644531 55.425781 C 84.46875 55.425781 84.296875 55.425781 84.117188 55.425781 C 83.960938 55.425781 83.804688 55.425781 83.640625 55.425781 C 83.203125 55.398438 82.820312 55.320312 82.398438 55.199219 C 82.398438 55.066406 82.398438 54.9375 82.398438 54.800781 C 82.203125 54.800781 82.003906 54.800781 81.800781 54.800781 C 81.800781 54.667969 81.800781 54.535156 81.800781 54.398438 C 81.503906 54.300781 81.503906 54.300781 81.199219 54.199219 C 81.199219 54.066406 81.199219 53.9375 81.199219 53.800781 C 80.804688 53.699219 80.804688 53.699219 80.398438 53.601562 C 80.300781 52.90625 80.300781 52.90625 80.199219 52.199219 C 80.066406 52.199219 79.9375 52.199219 79.800781 52.199219 C 79.800781 52.066406 79.800781 51.9375 79.800781 51.800781 C 75.839844 51.800781 71.878906 51.800781 67.800781 51.800781 C 67.800781 50.742188 67.800781 49.6875 67.800781 48.601562 C 68.320312 48.339844 68.691406 48.375 69.273438 48.378906 C 69.496094 48.378906 69.722656 48.378906 69.953125 48.378906 C 70.195312 48.378906 70.4375 48.378906 70.6875 48.378906 C 70.9375 48.378906 71.183594 48.382812 71.441406 48.382812 C 72.101562 48.382812 72.761719 48.382812 73.417969 48.386719 C 74.09375 48.386719 74.765625 48.390625 75.4375 48.390625 C 76.757812 48.390625 78.078125 48.394531 79.398438 48.398438 C 79.398438 48.136719 79.398438 47.871094 79.398438 47.601562 C 79.664062 47.535156 79.929688 47.46875 80.199219 47.398438 C 80.199219 47.269531 80.199219 47.136719 80.199219 47 C 80.398438 47 80.597656 47 80.800781 47 C 80.800781 46.867188 80.800781 46.734375 80.800781 46.601562 C 81.085938 46.296875 81.085938 46.296875 81.460938 45.976562 C 81.585938 45.867188 81.707031 45.757812 81.835938 45.648438 C 82.199219 45.398438 82.199219 45.398438 82.800781 45.398438 C 82.800781 45.269531 82.800781 45.136719 82.800781 45 C 83.273438 44.765625 83.558594 44.773438 84.085938 44.773438 Z M 84 48 C 84 48.132812 84 48.265625 84 48.398438 C 83.800781 48.464844 83.605469 48.53125 83.398438 48.601562 C 83.398438 48.929688 83.398438 49.261719 83.398438 49.601562 C 83.269531 49.601562 83.136719 49.601562 83 49.601562 C 83 50.128906 83 50.65625 83 51.199219 C 83.132812 51.199219 83.265625 51.199219 83.398438 51.199219 C 83.464844 51.398438 83.53125 51.597656 83.601562 51.800781 C 83.730469 51.800781 83.863281 51.800781 84 51.800781 C 84 51.933594 84 52.0625 84 52.199219 C 84.199219 52.199219 84.394531 52.199219 84.601562 52.199219 C 84.601562 52.332031 84.601562 52.464844 84.601562 52.601562 C 85.0625 52.601562 85.523438 52.601562 86 52.601562 C 86 52.46875 86 52.335938 86 52.199219 C 86.132812 52.199219 86.265625 52.199219 86.398438 52.199219 C 86.398438 52.066406 86.398438 51.9375 86.398438 51.800781 C 86.597656 51.734375 86.796875 51.667969 87 51.601562 C 87 51.46875 87 51.335938 87 51.199219 C 87.199219 51.132812 87.394531 51.066406 87.601562 51 C 87.621094 49.984375 87.621094 49.984375 87.398438 49 C 87.269531 49 87.136719 49 87 49 C 86.933594 48.800781 86.867188 48.605469 86.800781 48.398438 C 86.667969 48.398438 86.535156 48.398438 86.398438 48.398438 C 86.398438 48.269531 86.398438 48.136719 86.398438 48 C 85.609375 48 84.816406 48 84 48 Z M 84 48 "/>
<path style=" stroke:none;fill-rule:nonzero;fill:rgb(99.607843%,99.607843%,99.607843%);fill-opacity:1;" d="M 55 47.601562 C 55.59375 47.601562 56.1875 47.601562 56.800781 47.601562 C 56.933594 47.863281 57.0625 48.128906 57.199219 48.398438 C 57.792969 48.398438 58.386719 48.398438 59 48.398438 C 59 49.523438 59 50.644531 59 51.800781 C 57.285156 51.800781 55.566406 51.800781 53.800781 51.800781 C 53.800781 50.679688 53.800781 49.554688 53.800781 48.398438 C 54.195312 48.269531 54.59375 48.136719 55 48 C 55 47.867188 55 47.734375 55 47.601562 Z M 55 47.601562 "/>
<path style=" stroke:none;fill-rule:nonzero;fill:rgb(99.607843%,99.607843%,99.607843%);fill-opacity:1;" d="M 55.800781 56.398438 C 56.929688 56.332031 57.605469 56.511719 58.601562 57 C 58.605469 57.300781 58.609375 57.601562 58.613281 57.898438 C 58.613281 58.066406 58.617188 58.234375 58.621094 58.40625 C 58.59375 59.140625 58.492188 59.871094 58.398438 60.601562 C 56.882812 60.601562 55.363281 60.601562 53.800781 60.601562 C 53.800781 59.410156 53.800781 58.222656 53.800781 57 C 54.460938 56.933594 55.121094 56.867188 55.800781 56.800781 C 55.800781 56.667969 55.800781 56.535156 55.800781 56.398438 Z M 55.800781 56.398438 "/>
<path style=" stroke:none;fill-rule:nonzero;fill:rgb(99.607843%,99.607843%,99.607843%);fill-opacity:1;" d="M 54.800781 38.800781 C 55.15625 38.785156 55.515625 38.773438 55.875 38.761719 C 56.175781 38.753906 56.175781 38.753906 56.480469 38.742188 C 56.652344 38.761719 56.824219 38.78125 57 38.800781 C 57.132812 38.996094 57.265625 39.195312 57.398438 39.398438 C 57.597656 39.464844 57.796875 39.53125 58 39.601562 C 58 40.65625 58 41.710938 58 42.800781 C 56.613281 42.800781 55.226562 42.800781 53.800781 42.800781 C 53.800781 41.742188 53.800781 40.6875 53.800781 39.601562 C 53.996094 39.601562 54.195312 39.601562 54.398438 39.601562 C 54.398438 39.46875 54.398438 39.335938 54.398438 39.199219 C 54.53125 39.199219 54.664062 39.199219 54.800781 39.199219 C 54.800781 39.066406 54.800781 38.9375 54.800781 38.800781 Z M 54.800781 38.800781 "/>
<path style=" stroke:none;fill-rule:nonzero;fill:rgb(98.823529%,98.823529%,98.823529%);fill-opacity:1;" d="M 65.199219 48.601562 C 65.691406 49.375 65.765625 50.308594 65.601562 51.199219 C 65.226562 51.800781 65.226562 51.800781 64.601562 52.199219 C 63.59375 52.355469 62.683594 52.347656 61.800781 51.800781 C 61.367188 50.828125 61.558594 49.601562 61.800781 48.601562 C 62.882812 48.335938 64.136719 48.207031 65.199219 48.601562 Z M 65.199219 48.601562 "/>
<path style=" stroke:none;fill-rule:nonzero;fill:rgb(99.607843%,99.607843%,99.607843%);fill-opacity:1;" d="M 63.398438 52.398438 C 63.800781 52.601562 63.800781 52.601562 63.800781 52.601562 Z M 63.398438 52.398438 "/>
</g>
</svg>
