<?xml version="1.0" encoding="UTF-8"?>
<svg xmlns="http://www.w3.org/2000/svg" xmlns:xlink="http://www.w3.org/1999/xlink" width="100px" height="26px" viewBox="0 0 98 26" version="1.1">
<g id="surface1">
<path style=" stroke:none;fill-rule:nonzero;fill:rgb(97.647059%,97.647059%,97.647059%);fill-opacity:1;" d="M 34.078125 0.191406 C 34.296875 0.1875 34.519531 0.183594 34.746094 0.183594 C 35.105469 0.179688 35.105469 0.179688 35.476562 0.179688 C 35.722656 0.179688 35.972656 0.175781 36.226562 0.175781 C 36.753906 0.175781 37.28125 0.171875 37.808594 0.171875 C 38.605469 0.167969 39.40625 0.164062 40.203125 0.15625 C 40.714844 0.152344 41.230469 0.152344 41.742188 0.152344 C 42.09375 0.148438 42.09375 0.148438 42.457031 0.144531 C 45.011719 0.152344 47.800781 0.597656 49.675781 2.488281 C 51.464844 4.644531 51.683594 6.734375 51.472656 9.496094 C 51.167969 11.40625 50.289062 12.785156 48.886719 14.089844 C 47.328125 15.148438 47.328125 15.148438 46.304688 15.148438 C 46.75 16.128906 47.199219 17.109375 47.652344 18.085938 C 47.71875 18.230469 47.785156 18.375 47.851562 18.523438 C 48.714844 20.394531 49.585938 22.257812 50.53125 24.089844 C 51.023438 25.050781 51.023438 25.050781 51.023438 25.546875 C 49.613281 25.546875 48.203125 25.546875 46.753906 25.546875 C 45.578125 23.359375 44.449219 21.160156 43.378906 18.921875 C 43.273438 18.695312 43.164062 18.46875 43.054688 18.238281 C 42.953125 18.027344 42.851562 17.8125 42.75 17.59375 C 42.660156 17.40625 42.570312 17.21875 42.476562 17.023438 C 42.257812 16.503906 42.257812 16.503906 42.03125 15.601562 C 40.25 15.601562 38.472656 15.601562 36.636719 15.601562 C 36.636719 18.882812 36.636719 22.164062 36.636719 25.546875 C 35.375 25.546875 34.117188 25.546875 32.816406 25.546875 C 32.8125 22.28125 32.808594 19.011719 32.804688 15.742188 C 32.804688 14.226562 32.800781 12.707031 32.800781 11.191406 C 32.796875 9.726562 32.796875 8.265625 32.796875 6.800781 C 32.792969 6.242188 32.792969 5.683594 32.792969 5.125 C 32.792969 4.34375 32.789062 3.5625 32.789062 2.78125 C 32.789062 2.546875 32.789062 2.3125 32.789062 2.074219 C 32.789062 1.863281 32.789062 1.648438 32.789062 1.433594 C 32.789062 1.246094 32.789062 1.0625 32.789062 0.871094 C 32.84375 0.03125 33.359375 0.195312 34.078125 0.191406 Z M 36.636719 4.070312 C 36.636719 6.679688 36.636719 9.292969 36.636719 11.984375 C 38.527344 12.003906 38.527344 12.003906 40.457031 12.023438 C 40.851562 12.03125 41.246094 12.039062 41.652344 12.042969 C 41.972656 12.046875 42.289062 12.046875 42.609375 12.050781 C 42.847656 12.054688 42.847656 12.054688 43.09375 12.058594 C 44.367188 12.058594 45.667969 11.867188 46.65625 10.992188 C 47.660156 9.84375 47.71875 8.808594 47.699219 7.339844 C 47.601562 6.210938 47.128906 5.515625 46.304688 4.789062 C 45.234375 4.003906 44.34375 4.039062 43.070312 4.046875 C 42.886719 4.046875 42.703125 4.046875 42.511719 4.046875 C 41.925781 4.050781 41.339844 4.050781 40.753906 4.054688 C 40.355469 4.054688 39.957031 4.058594 39.5625 4.058594 C 38.585938 4.0625 37.613281 4.066406 36.636719 4.070312 Z M 36.636719 4.070312 "/>
<path style=" stroke:none;fill-rule:nonzero;fill:rgb(98.431373%,98.431373%,98.431373%);fill-opacity:1;" d="M 66.152344 -0.0703125 C 66.320312 -0.0703125 66.488281 -0.0664062 66.660156 -0.0664062 C 69.558594 -0.00390625 71.746094 1.191406 73.742188 3.289062 C 76.324219 6.613281 77.03125 11.050781 76.597656 15.160156 C 76.109375 18.796875 74.839844 21.886719 71.996094 24.289062 C 69.785156 25.800781 67.351562 26.207031 64.734375 26 C 62.027344 25.457031 59.800781 24.234375 58.214844 21.929688 C 56.769531 19.457031 55.910156 16.894531 55.742188 14.015625 C 55.734375 13.867188 55.722656 13.714844 55.714844 13.558594 C 55.609375 10.054688 56.355469 6.082031 58.699219 3.367188 C 60.839844 1.164062 63.019531 -0.09375 66.152344 -0.0703125 Z M 61.292969 6.199219 C 59.4375 9.042969 59.285156 13.265625 59.941406 16.523438 C 60.5 18.480469 61.425781 20.375 63.183594 21.492188 C 64.890625 22.335938 66.804688 22.332031 68.605469 21.777344 C 70.214844 21.074219 71.292969 19.761719 71.996094 18.171875 C 73.210938 14.707031 73.199219 10.605469 71.703125 7.234375 C 70.878906 5.691406 69.601562 4.492188 67.933594 3.949219 C 65.273438 3.382812 63.015625 4.082031 61.292969 6.199219 Z M 61.292969 6.199219 "/>
<path style=" stroke:none;fill-rule:nonzero;fill:rgb(98.431373%,98.431373%,98.431373%);fill-opacity:1;" d="M 95.773438 1.929688 C 96.296875 2.332031 96.820312 2.738281 97.324219 3.164062 C 96.980469 3.996094 96.476562 4.519531 95.835938 5.144531 C 95.652344 5.324219 95.46875 5.503906 95.28125 5.691406 C 95.140625 5.828125 95 5.964844 94.851562 6.105469 C 94.101562 5.75 93.496094 5.316406 92.847656 4.796875 C 91.675781 4.105469 90.441406 4.003906 89.109375 4 C 88.824219 3.996094 88.542969 3.992188 88.25 3.988281 C 87.203125 4.09375 86.441406 4.40625 85.679688 5.144531 C 85.304688 5.859375 85.214844 6.425781 85.1875 7.234375 C 85.730469 8.640625 86.382812 8.980469 87.691406 9.59375 C 88.914062 10.109375 90.175781 10.527344 91.429688 10.957031 C 93.832031 11.789062 96.28125 12.722656 97.59375 15.058594 C 98.105469 16.140625 98.125 17.132812 98.097656 18.3125 C 98.101562 18.503906 98.101562 18.699219 98.101562 18.894531 C 98.082031 21.027344 97.464844 22.425781 96.011719 23.96875 C 94.007812 25.816406 91.09375 26.125 88.488281 26.066406 C 85.167969 25.804688 82.816406 24.464844 80.46875 22.15625 C 80.8125 21.324219 81.316406 20.804688 81.957031 20.179688 C 82.140625 19.996094 82.324219 19.816406 82.511719 19.628906 C 82.65625 19.496094 82.796875 19.359375 82.941406 19.21875 C 83.042969 19.300781 83.144531 19.386719 83.246094 19.472656 C 85.539062 21.308594 87.882812 22.148438 90.808594 21.929688 C 91.898438 21.734375 92.769531 21.488281 93.632812 20.773438 C 94.203125 19.625 94.324219 18.585938 93.96875 17.351562 C 92.539062 15.4375 89.910156 14.925781 87.761719 14.207031 C 85.472656 13.417969 83.171875 12.53125 81.816406 10.398438 C 81.023438 8.726562 80.910156 6.5625 81.402344 4.773438 C 82.199219 2.761719 83.621094 1.382812 85.566406 0.496094 C 88.976562 -0.734375 92.851562 -0.175781 95.773438 1.929688 Z M 95.773438 1.929688 "/>
<path style=" stroke:none;fill-rule:nonzero;fill:rgb(97.647059%,97.647059%,97.647059%);fill-opacity:1;" d="M 13.710938 0.453125 C 14.484375 0.929688 15.015625 1.378906 15.285156 2.261719 C 15.386719 3.339844 15.398438 3.847656 14.90625 4.820312 C 14.109375 5.75 13.605469 6.054688 12.390625 6.230469 C 11.40625 6.199219 10.890625 5.75 10.191406 5.089844 C 9.550781 4.367188 9.601562 3.699219 9.617188 2.769531 C 9.714844 1.738281 10.1875 1.269531 10.929688 0.59375 C 11.933594 0.105469 12.652344 0.144531 13.710938 0.453125 Z M 13.710938 0.453125 "/>
<path style=" stroke:none;fill-rule:nonzero;fill:rgb(98.039216%,98.039216%,98.039216%);fill-opacity:1;" d="M 4.046875 10.175781 C 5.066406 11 5.558594 11.671875 5.703125 12.972656 C 5.585938 14.125 5.09375 14.730469 4.339844 15.570312 C 3.503906 15.980469 2.707031 15.96875 1.796875 15.824219 C 0.875 15.355469 0.386719 14.976562 0 14.015625 C -0.164062 12.972656 -0.09375 12.175781 0.367188 11.21875 C 1.429688 10.035156 2.539062 9.660156 4.046875 10.175781 Z M 4.046875 10.175781 "/>
<path style=" stroke:none;fill-rule:nonzero;fill:rgb(97.647059%,97.647059%,97.647059%);fill-opacity:1;" d="M 22.925781 0.226562 C 23.902344 0.734375 24.53125 1.230469 24.949219 2.261719 C 25.070312 3.351562 25.066406 3.839844 24.570312 4.820312 C 23.808594 5.707031 23.3125 6.0625 22.140625 6.1875 C 21.027344 6.070312 20.269531 5.609375 19.554688 4.746094 C 19.277344 3.90625 19.210938 3.136719 19.332031 2.261719 C 20.144531 0.65625 21.128906 0.00390625 22.925781 0.226562 Z M 22.925781 0.226562 "/>
<path style=" stroke:none;fill-rule:nonzero;fill:rgb(97.647059%,97.647059%,97.647059%);fill-opacity:1;" d="M 4.046875 0.453125 C 4.765625 1.023438 5.335938 1.601562 5.621094 2.488281 C 5.726562 3.441406 5.683594 3.945312 5.238281 4.804688 C 4.449219 5.75 3.949219 6.054688 2.726562 6.230469 C 1.742188 6.199219 1.226562 5.75 0.527344 5.089844 C -0.140625 4.335938 -0.0859375 3.578125 -0.078125 2.609375 C 0.0507812 1.667969 0.429688 1.3125 1.125 0.679688 C 2.101562 0.0742188 2.960938 0.148438 4.046875 0.453125 Z M 4.046875 0.453125 "/>
<path style=" stroke:none;fill-rule:nonzero;fill:rgb(98.039216%,98.039216%,98.039216%);fill-opacity:1;" d="M 13.710938 10.175781 C 14.648438 10.953125 15.246094 11.605469 15.367188 12.84375 C 15.339844 14.03125 14.777344 14.710938 14.007812 15.570312 C 13.175781 15.980469 12.371094 15.945312 11.464844 15.824219 C 10.753906 15.53125 10.425781 15.25 9.933594 14.667969 C 9.554688 13.753906 9.511719 12.957031 9.664062 11.984375 C 10.070312 11.136719 10.421875 10.726562 11.183594 10.1875 C 12.101562 9.886719 12.792969 9.859375 13.710938 10.175781 Z M 13.710938 10.175781 "/>
<path style=" stroke:none;fill-rule:nonzero;fill:rgb(98.039216%,98.039216%,98.039216%);fill-opacity:1;" d="M 23.375 10.175781 C 24.136719 10.664062 24.683594 11.101562 24.949219 11.984375 C 25.046875 13.195312 25.058594 13.941406 24.273438 14.921875 C 23.621094 15.636719 23.113281 15.898438 22.167969 15.96875 C 21.125 15.925781 20.585938 15.519531 19.851562 14.808594 C 19.226562 14.089844 19.253906 13.429688 19.269531 12.507812 C 19.367188 11.675781 19.667969 11.234375 20.230469 10.625 C 21.351562 9.964844 22.121094 9.824219 23.375 10.175781 Z M 23.375 10.175781 "/>
<path style=" stroke:none;fill-rule:nonzero;fill:rgb(98.039216%,98.039216%,98.039216%);fill-opacity:1;" d="M 23.796875 20.164062 C 24.496094 20.765625 24.890625 21.25 25.011719 22.191406 C 25.054688 23.253906 25.015625 24.054688 24.273438 24.871094 C 23.453125 25.441406 22.773438 25.78125 21.761719 25.761719 C 20.84375 25.453125 20.230469 25.132812 19.597656 24.390625 C 19.222656 23.476562 19.175781 22.679688 19.332031 21.703125 C 20.269531 19.851562 21.902344 19.375 23.796875 20.164062 Z M 23.796875 20.164062 "/>
<path style=" stroke:none;fill-rule:nonzero;fill:rgb(98.039216%,98.039216%,98.039216%);fill-opacity:1;" d="M 13.484375 19.894531 C 14.367188 20.417969 14.957031 20.949219 15.285156 21.929688 C 15.367188 23.066406 15.316406 23.738281 14.609375 24.644531 C 13.828125 25.40625 13.242188 25.773438 12.136719 25.773438 C 11.230469 25.480469 10.535156 25.085938 9.890625 24.375 C 9.570312 23.464844 9.511719 22.65625 9.664062 21.703125 C 10.5 20.050781 11.695312 19.542969 13.484375 19.894531 Z M 13.484375 19.894531 "/>
<path style=" stroke:none;fill-rule:nonzero;fill:rgb(98.039216%,98.039216%,98.039216%);fill-opacity:1;" d="M 3.820312 19.894531 C 4.542969 20.265625 5 20.792969 5.480469 21.449219 C 5.789062 22.511719 5.75 23.269531 5.226562 24.246094 C 4.582031 25.039062 4.164062 25.441406 3.1875 25.746094 C 2.242188 25.78125 1.71875 25.570312 0.898438 25.09375 C 0.199219 24.339844 -0.0585938 23.734375 -0.113281 22.722656 C -0.0664062 21.71875 0.246094 21.117188 0.898438 20.347656 C 1.855469 19.707031 2.699219 19.722656 3.820312 19.894531 Z M 3.820312 19.894531 "/>
</g>
</svg>
